<?xml version="1.0" encoding="UTF-8" ?>
<!DOCTYPE svg PUBLIC "-//W3C//DTD SVG 1.1//EN" "http://www.w3.org/Graphics/SVG/1.1/DTD/svg11.dtd">
<svg width="1254pt" height="1254pt" viewBox="0 0 1254 1254" version="1.1" xmlns="http://www.w3.org/2000/svg">
<g id="#fefdfdff">
</g>
<g id="#020f3aff">
<path fill="#020f3a" opacity="1.00" d=" M 219.58 14.89 C 226.03 14.28 232.50 13.92 238.97 13.79 C 491.99 13.84 745.01 13.74 998.03 13.81 C 1013.43 13.74 1028.90 13.60 1044.17 15.84 C 1093.25 22.45 1139.80 46.20 1174.20 81.78 C 1203.53 111.60 1223.99 149.93 1232.70 190.82 C 1238.78 216.79 1237.09 243.60 1237.35 270.04 C 1237.33 513.00 1237.36 755.96 1237.32 998.91 C 1237.28 1015.56 1237.87 1032.27 1235.85 1048.84 C 1231.05 1088.56 1214.50 1126.55 1189.92 1158.00 C 1152.29 1206.30 1094.19 1238.59 1032.96 1243.23 C 1021.65 1244.14 1010.29 1243.80 998.96 1243.86 C 753.31 1243.84 507.65 1243.85 262.00 1243.85 C 250.33 1243.79 238.66 1244.09 227.00 1243.49 C 188.38 1241.19 150.58 1228.12 118.51 1206.55 C 68.71 1173.48 32.74 1119.93 22.03 1061.02 C 18.60 1044.24 18.42 1027.05 18.63 1010.00 C 18.60 754.99 18.63 499.99 18.60 244.98 C 18.54 236.31 18.58 227.62 19.28 218.97 C 22.73 176.56 38.51 135.11 64.76 101.56 C 101.56 53.05 158.93 20.78 219.58 14.89 M 577.33 129.32 C 545.70 145.15 522.77 176.35 515.81 210.89 C 515.49 212.83 514.95 214.84 515.36 216.81 L 514.74 216.33 C 514.58 220.93 513.41 225.45 513.61 230.06 C 513.36 231.33 514.07 233.05 513.11 234.05 C 509.72 234.48 505.73 233.26 502.98 235.89 C 497.62 239.61 500.23 249.51 506.91 249.77 C 540.61 249.88 574.33 249.68 608.04 249.80 C 610.82 249.73 613.92 250.10 616.29 248.30 C 619.82 245.80 619.77 240.54 618.14 236.95 C 616.09 233.26 611.50 234.23 608.02 234.18 C 582.09 234.10 556.15 234.21 530.22 234.11 C 530.17 228.99 530.59 223.84 531.02 218.80 C 531.98 215.41 532.54 211.93 533.41 208.53 C 538.33 190.45 548.09 173.64 561.88 160.89 C 574.00 149.72 589.03 141.63 605.12 137.97 C 624.77 132.96 646.01 134.84 664.68 142.66 C 678.88 148.51 691.41 158.01 701.31 169.71 L 701.29 169.95 C 716.32 187.18 723.92 210.04 724.68 232.70 C 724.18 234.38 722.32 234.10 720.96 234.16 C 695.00 234.16 669.03 234.10 643.07 234.19 C 641.69 234.27 640.23 234.08 638.96 234.68 C 632.72 237.81 634.51 249.64 641.96 249.74 C 677.28 249.78 712.61 249.91 747.92 249.66 C 754.18 249.59 757.23 241.17 753.13 236.79 C 750.13 233.06 744.93 234.42 740.80 234.32 C 741.76 206.83 731.37 179.62 714.06 158.46 L 713.95 158.45 C 704.70 147.24 693.28 137.87 680.57 130.84 C 670.04 125.29 658.74 121.15 646.99 119.11 C 623.49 114.72 598.67 118.68 577.33 129.32 M 901.67 122.03 C 887.39 123.15 874.76 134.31 871.56 148.21 C 868.33 160.71 872.92 174.77 882.74 183.11 C 891.74 190.94 905.02 193.34 916.23 189.28 C 929.97 184.63 939.67 170.54 939.46 156.09 C 939.21 145.94 934.41 135.98 926.59 129.50 C 919.75 123.80 910.50 121.14 901.67 122.03 M 963.16 151.96 C 959.96 169.89 973.75 188.31 991.68 190.80 C 998.76 191.77 1006.17 190.85 1012.55 187.52 C 1025.00 181.30 1032.91 166.93 1031.29 153.07 C 1029.87 137.41 1016.74 123.34 1000.85 122.14 C 982.89 119.49 964.91 134.03 963.16 151.96 M 1081.53 122.80 C 1078.11 123.64 1074.79 124.96 1071.83 126.85 C 1057.64 135.14 1051.14 154.29 1057.50 169.45 C 1062.96 183.70 1078.78 193.33 1093.97 190.90 C 1105.35 189.59 1115.27 181.63 1120.32 171.55 C 1123.58 165.26 1124.06 157.96 1123.30 151.03 C 1121.63 140.40 1114.75 130.73 1105.22 125.71 C 1098.08 121.65 1089.43 121.52 1081.53 122.80 M 625.42 149.55 C 623.19 150.28 621.35 152.58 621.58 154.99 C 621.62 159.96 621.10 164.99 621.82 169.92 C 624.03 174.56 631.66 174.10 632.96 168.99 C 633.37 164.34 633.15 159.65 633.17 154.98 C 633.24 151.13 629.04 148.23 625.42 149.55 M 561.05 185.91 C 563.68 189.25 567.09 191.89 569.85 195.13 C 571.94 197.80 576.33 196.85 578.03 194.18 C 579.89 192.65 579.50 190.20 579.56 188.07 C 576.02 184.99 573.11 181.30 569.75 178.04 C 564.94 175.22 558.92 180.90 561.05 185.91 M 684.06 179.05 C 681.18 182.14 678.16 185.10 675.07 187.97 C 673.97 192.62 677.92 197.87 682.92 196.63 C 686.44 193.93 689.38 190.51 692.52 187.38 C 694.23 185.79 693.92 183.16 693.42 181.11 C 692.14 177.40 686.70 175.95 684.06 179.05 M 620.96 209.69 C 613.38 210.23 605.73 209.39 598.16 210.27 C 594.56 211.39 593.84 215.94 596.67 218.31 C 604.74 219.29 612.91 218.44 621.03 218.77 C 622.40 221.71 625.99 222.89 629.02 222.24 C 632.27 221.54 635.07 219.65 638.15 218.47 C 639.84 218.79 641.49 217.99 643.15 217.71 C 647.77 216.39 652.80 216.36 657.02 213.83 C 656.64 211.11 654.59 209.11 652.49 207.57 C 649.83 206.30 647.85 209.34 645.26 209.28 C 642.17 209.50 639.06 209.60 635.96 209.58 C 633.51 209.57 632.33 206.06 629.83 206.46 L 630.29 205.82 C 626.52 205.06 623.85 207.89 620.96 209.69 M 465.38 232.61 C 451.98 237.78 438.60 243.14 425.86 249.80 C 412.51 256.42 399.68 264.08 387.24 272.27 C 384.48 274.16 381.31 275.61 379.09 278.17 C 377.48 281.11 377.75 285.39 380.41 287.68 C 383.51 290.66 388.31 289.71 392.14 289.10 C 408.47 278.97 425.12 269.25 442.59 261.17 L 442.48 261.09 C 451.89 256.80 461.32 252.55 471.04 248.99 C 476.84 247.43 479.05 239.35 475.14 234.90 C 472.85 232.09 468.67 230.93 465.38 232.61 M 783.18 232.25 C 776.31 234.85 776.37 246.16 783.33 248.64 C 810.37 258.79 836.32 271.81 860.61 287.45 C 863.85 289.94 868.14 289.80 872.00 289.31 C 875.94 288.56 878.61 284.25 877.48 280.39 C 876.87 276.77 873.15 275.39 870.53 273.45 C 846.98 257.84 821.82 244.65 795.40 234.59 C 791.50 233.31 787.34 230.29 783.18 232.25 M 596.25 297.03 C 587.47 305.06 581.44 316.36 580.29 328.24 C 579.42 329.99 579.79 332.06 579.71 333.96 C 579.95 340.24 580.60 346.73 583.38 352.46 C 588.33 366.18 600.10 377.27 614.12 381.35 C 624.30 384.30 635.22 383.36 645.11 379.75 C 652.58 376.25 659.53 371.15 664.25 364.30 C 666.34 359.51 662.10 355.94 659.00 353.02 C 656.75 350.59 652.31 350.61 650.16 353.17 C 646.31 357.50 641.63 361.27 636.04 363.05 C 630.52 365.12 624.57 364.44 618.93 363.33 C 609.76 360.02 602.33 352.28 599.69 342.85 C 598.45 337.30 598.26 331.50 599.64 325.96 C 602.19 317.91 607.56 310.47 615.42 306.96 L 615.52 306.71 C 625.48 302.69 637.76 303.81 646.04 310.94 C 648.56 312.95 650.31 316.70 653.97 316.66 C 657.68 317.11 659.95 313.53 662.43 311.41 C 664.95 309.49 665.48 305.71 663.92 303.05 C 655.41 292.17 642.02 284.62 627.97 285.15 C 616.32 284.57 604.94 289.48 596.25 297.03 M 361.40 314.64 L 361.40 315.09 C 352.96 316.40 344.93 319.44 336.84 322.04 C 309.32 331.86 283.77 347.22 262.20 366.94 C 243.47 384.29 227.01 404.33 215.00 426.94 C 204.65 446.55 196.80 467.54 192.23 489.25 C 187.42 511.12 186.45 533.65 187.86 555.95 C 192.01 613.27 218.12 668.29 258.35 709.12 C 267.28 718.53 277.22 726.97 287.62 734.73 C 291.41 737.95 295.74 740.41 299.91 743.08 C 301.16 743.71 301.31 745.19 301.77 746.36 C 302.19 750.69 303.81 754.88 304.86 759.12 C 315.47 794.60 331.52 828.60 353.39 858.55 C 371.95 883.84 394.52 905.98 419.00 925.50 C 427.93 927.02 437.04 926.30 445.99 925.42 C 446.44 925.19 447.35 924.72 447.80 924.49 C 429.45 910.99 411.67 896.63 395.75 880.30 C 368.95 852.80 348.03 819.82 333.26 784.44 C 327.03 768.84 321.47 752.87 318.26 736.35 C 317.69 733.49 316.00 730.97 313.46 729.51 C 307.57 725.88 302.02 721.74 296.48 717.61 C 285.86 709.60 276.20 700.40 267.00 690.81 C 249.39 671.51 234.85 649.38 224.52 625.37 C 217.20 607.60 211.73 589.02 208.82 570.00 C 205.05 544.15 205.76 517.58 211.54 492.08 C 216.89 468.90 225.75 446.45 238.33 426.24 C 250.99 405.25 267.87 387.09 286.87 371.72 L 286.31 371.58 C 287.66 371.61 288.70 370.37 289.83 369.75 C 312.87 352.35 339.70 339.92 367.97 333.98 C 372.50 332.90 377.14 332.35 381.65 331.14 C 382.80 331.56 384.06 331.04 385.25 330.96 C 411.11 327.48 437.60 329.31 462.84 335.88 C 485.70 342.16 507.43 352.42 526.90 365.91 C 533.70 370.43 540.02 375.61 546.35 380.76 C 559.31 392.08 571.13 404.61 583.21 416.85 C 595.74 429.34 607.82 442.28 620.46 454.65 C 634.74 469.85 649.65 484.45 664.15 499.44 C 673.17 508.92 682.49 518.09 691.57 527.51 C 704.14 539.94 716.17 552.91 728.74 565.34 C 742.52 578.65 759.61 588.76 778.16 593.71 C 802.64 600.67 830.14 597.54 851.74 583.75 C 862.89 577.32 871.96 568.04 880.93 558.95 C 883.17 556.86 883.18 553.32 882.39 550.59 C 880.69 548.04 878.25 546.11 876.09 543.98 C 874.13 541.85 870.38 542.35 868.48 544.33 C 862.72 549.99 857.47 556.21 851.00 561.09 C 834.38 574.31 812.08 581.03 791.04 576.73 C 777.69 574.52 765.27 568.42 754.19 560.81 C 741.70 552.59 732.37 540.69 721.81 530.30 C 708.17 516.05 694.12 502.18 680.55 487.87 C 667.65 474.98 655.02 461.83 642.30 448.76 C 627.89 434.14 613.51 419.49 599.27 404.70 C 587.25 392.88 575.72 380.54 563.00 369.45 C 553.24 360.91 542.97 352.89 532.00 345.96 C 516.49 335.84 499.71 327.61 482.21 321.56 C 474.62 319.21 467.12 316.24 459.23 315.10 L 460.06 314.96 C 444.25 311.53 428.18 308.88 411.95 309.24 C 394.94 308.90 378.03 311.23 361.40 314.64 M 807.48 312.84 C 806.17 312.48 804.83 313.13 803.54 313.29 C 787.78 316.53 772.34 321.33 757.55 327.66 C 746.70 332.40 736.16 337.87 726.21 344.28 C 717.50 349.66 709.10 355.60 701.34 362.28 L 701.11 362.28 C 692.47 369.59 683.94 377.07 676.21 385.35 L 675.99 385.34 C 664.51 396.77 653.15 408.34 642.08 420.16 C 640.35 421.71 642.30 423.44 643.41 424.59 C 647.11 428.12 650.48 432.00 654.19 435.53 C 655.54 434.44 656.86 433.31 658.06 432.05 C 670.98 418.62 684.04 405.32 697.08 392.02 L 697.15 392.08 C 703.74 385.73 710.71 379.77 717.72 373.91 C 724.09 369.13 730.53 364.44 737.34 360.30 C 746.05 354.85 755.17 350.03 764.68 346.14 L 764.70 345.89 C 784.67 337.63 805.84 332.15 827.38 330.22 L 827.80 329.80 C 836.64 329.50 845.50 329.03 854.35 329.45 C 889.63 330.79 924.27 342.25 953.91 361.33 C 977.02 376.18 997.00 395.81 1012.62 418.38 C 1028.34 441.51 1039.55 467.73 1045.19 495.13 C 1054.44 539.21 1048.44 585.84 1031.06 627.18 C 1029.40 629.92 1032.23 632.11 1033.74 634.10 C 1036.82 637.51 1039.25 641.46 1042.36 644.85 C 1042.65 644.83 1043.24 644.78 1043.53 644.75 C 1060.24 611.83 1068.96 574.88 1068.85 537.96 C 1069.46 488.01 1052.75 438.14 1022.80 398.22 C 1007.67 378.61 989.56 361.22 968.99 347.38 C 937.21 325.44 899.44 312.52 860.99 309.54 C 843.12 308.82 824.99 308.84 807.48 312.84 M 337.56 385.47 C 319.63 394.46 303.33 406.77 290.09 421.84 L 289.99 421.78 C 270.50 442.85 257.09 469.19 250.05 496.93 C 244.55 518.10 244.09 540.27 246.34 561.93 C 250.05 596.52 264.49 629.70 286.66 656.44 C 293.58 664.63 300.71 672.78 309.18 679.42 C 309.71 679.04 310.78 678.28 311.31 677.90 C 311.35 670.49 311.36 663.08 311.44 655.67 C 294.18 637.44 280.05 615.87 272.28 591.88 C 265.23 570.00 263.04 546.65 265.07 523.79 C 268.89 483.60 289.13 445.02 320.84 419.88 C 336.52 407.49 354.82 398.67 373.92 392.98 C 391.30 387.88 409.58 386.30 427.61 387.82 L 427.46 388.13 C 443.96 389.03 459.68 394.87 474.71 401.32 C 488.96 408.78 502.53 417.74 514.16 428.91 C 529.11 443.47 543.51 458.58 558.32 473.29 C 577.13 492.26 595.93 511.25 614.65 530.32 C 619.03 534.30 622.87 538.86 627.36 542.72 C 634.05 548.03 644.82 539.86 642.32 532.02 C 641.53 528.75 638.71 526.67 636.53 524.35 C 613.62 500.68 590.28 477.41 567.14 453.96 C 552.76 439.68 538.67 425.11 524.11 411.01 C 509.12 397.38 491.72 386.39 472.96 378.69 C 452.67 370.53 430.82 366.23 408.92 366.65 C 384.21 368.12 359.54 373.86 337.56 385.47 M 788.41 376.78 L 788.16 376.71 C 782.43 378.89 776.83 381.36 771.30 383.99 C 762.06 388.56 753.18 393.89 744.89 400.03 L 744.95 400.19 C 734.71 407.34 725.88 416.29 717.24 425.26 C 705.81 436.82 694.51 448.53 683.32 460.32 C 682.01 461.47 681.44 463.75 682.88 465.03 C 686.21 468.38 689.23 472.05 692.59 475.37 C 694.70 476.92 697.11 475.08 698.42 473.36 C 709.48 461.28 721.28 449.92 732.47 437.97 L 732.53 437.73 C 739.80 430.39 747.19 423.15 755.49 416.95 L 755.56 416.79 C 761.10 413.14 766.43 409.14 772.33 406.05 L 772.42 405.76 C 782.71 400.60 793.28 395.96 804.38 392.82 C 819.28 388.32 834.93 386.88 850.41 387.22 C 860.72 388.03 871.05 389.30 881.04 392.10 C 911.55 400.18 939.08 418.65 958.57 443.43 C 977.45 467.21 989.07 496.68 991.55 526.95 C 992.54 546.05 991.02 565.34 986.28 583.89 C 985.94 586.02 984.42 588.51 985.53 590.51 C 990.33 594.26 995.56 597.48 1000.10 601.61 C 1002.70 599.46 1002.91 595.88 1003.91 592.88 C 1014.60 554.59 1014.23 512.66 999.33 475.52 C 990.27 451.79 975.66 430.30 957.40 412.69 C 935.03 391.47 906.82 375.91 876.42 370.14 L 876.33 369.93 C 847.13 363.84 816.40 366.73 788.41 376.78 M 415.50 410.51 C 402.15 422.65 389.38 435.44 377.28 448.83 C 364.34 463.04 352.51 478.36 342.39 494.71 L 342.12 494.71 C 336.93 503.34 331.61 511.91 327.04 520.89 C 323.50 527.75 319.93 534.64 317.17 541.86 C 312.74 551.37 308.99 561.29 306.45 571.48 C 305.63 572.26 305.62 573.53 305.23 574.55 C 302.45 584.91 299.82 595.37 298.54 606.04 C 298.27 607.77 299.60 609.18 300.27 610.68 C 303.92 616.77 307.19 623.31 312.42 628.23 C 315.55 609.90 318.65 591.48 324.46 573.77 L 324.42 572.51 L 324.78 573.02 C 326.87 565.48 330.51 558.42 332.55 550.92 L 332.54 551.69 C 337.16 541.07 342.38 530.74 347.90 520.56 L 348.08 520.57 C 350.57 515.77 353.90 511.44 356.31 506.61 C 358.30 504.12 359.93 501.37 361.69 498.72 C 371.89 483.33 383.57 468.97 396.10 455.43 C 410.23 440.08 425.54 425.89 440.85 411.74 C 436.17 409.73 430.96 409.66 426.00 408.83 C 422.50 408.62 418.30 407.83 415.50 410.51 M 816.20 411.83 C 837.69 430.15 858.66 449.20 876.89 470.83 C 906.63 506.89 927.40 550.14 938.12 595.58 C 939.28 599.45 938.82 604.04 941.72 607.21 C 943.87 610.06 947.40 611.23 950.41 612.92 C 973.99 626.57 995.58 644.20 1011.49 666.48 C 1037.89 702.33 1050.94 747.67 1047.91 792.07 C 1046.36 830.14 1033.79 867.39 1013.45 899.48 C 1008.65 908.11 1002.07 915.51 996.32 923.47 L 995.90 923.55 C 987.01 934.04 977.14 943.71 966.43 952.32 C 953.25 963.15 938.39 971.66 923.32 979.50 C 918.01 981.20 913.05 984.02 907.77 985.89 C 896.05 990.38 884.01 994.08 871.67 996.39 C 849.15 1000.85 826.03 1001.37 803.23 999.23 L 803.03 998.94 C 785.55 997.14 768.33 992.98 751.80 987.07 C 746.69 985.46 741.91 982.61 736.74 981.45 L 737.18 981.07 C 730.42 978.26 723.94 974.86 717.54 971.36 C 699.53 960.96 682.33 948.66 668.46 933.06 C 676.28 924.81 683.49 916.00 691.46 907.91 C 703.31 919.79 716.35 930.73 731.11 938.79 C 760.20 956.27 794.36 964.72 828.19 964.46 C 844.17 964.61 860.05 962.11 875.54 958.30 C 875.55 958.21 875.57 958.03 875.58 957.95 C 882.16 956.72 888.38 954.16 894.66 951.91 C 930.39 938.17 961.56 912.71 981.83 880.21 C 1006.05 842.35 1016.19 795.30 1007.89 750.98 C 1003.68 729.37 995.27 708.45 982.45 690.50 C 972.51 676.85 960.85 664.22 947.04 654.41 C 946.18 655.48 944.39 656.31 944.76 657.98 C 944.79 663.67 944.71 669.35 944.76 675.04 C 944.68 676.41 944.95 677.89 946.07 678.83 C 974.59 704.10 991.13 741.97 991.46 779.97 C 991.64 818.71 977.77 857.30 953.12 887.17 L 952.87 887.15 C 931.80 912.78 902.30 930.90 870.47 939.85 L 870.06 939.74 C 852.32 944.75 833.71 946.18 815.35 945.26 C 811.61 944.43 807.76 944.57 804.01 943.90 C 784.41 941.63 765.38 935.34 747.81 926.46 L 747.47 926.59 C 740.56 922.55 733.46 918.76 727.07 913.90 C 715.77 906.06 705.92 896.36 696.69 886.23 C 693.14 883.06 687.49 884.09 684.53 887.56 C 671.67 902.02 659.17 916.81 646.25 931.22 C 644.88 932.72 644.80 935.33 646.00 936.95 C 669.16 964.07 698.96 985.24 731.59 999.47 C 766.60 1014.98 805.32 1020.72 843.42 1019.23 L 843.02 1018.88 C 856.77 1018.68 870.42 1016.45 883.85 1013.60 C 899.07 1010.13 913.93 1005.12 928.06 998.46 C 964.11 982.38 995.95 956.99 1019.44 925.23 C 1046.71 889.09 1063.53 845.11 1066.60 799.89 C 1068.90 774.50 1067.24 748.67 1060.44 724.04 C 1055.92 708.11 1049.95 692.53 1041.88 678.04 C 1023.69 644.75 996.05 616.70 962.96 598.11 C 960.82 596.95 958.67 595.79 956.54 594.64 C 946.09 545.82 924.05 499.44 892.39 460.79 C 878.38 443.54 862.49 427.93 845.88 413.20 C 843.73 411.49 841.88 408.87 838.91 408.72 C 833.66 408.08 828.41 409.06 823.23 409.80 C 820.84 410.27 818.28 410.42 816.20 411.83 M 772.59 466.35 C 769.48 469.51 766.91 473.13 764.59 476.90 C 762.01 481.52 759.86 486.48 759.21 491.78 L 758.88 492.11 C 758.35 498.44 757.36 505.10 759.33 511.27 C 761.78 526.69 772.85 540.59 787.35 546.48 C 794.81 549.42 803.03 551.01 811.02 549.73 C 823.46 548.37 835.32 541.38 842.31 530.99 C 844.05 525.77 839.04 522.18 835.39 519.57 C 832.22 517.42 828.28 519.56 826.18 522.20 C 818.05 531.54 803.38 534.30 792.46 528.40 C 785.07 524.83 780.04 517.70 777.55 510.05 C 776.01 504.29 776.81 498.43 777.57 492.66 C 779.12 489.48 780.51 486.20 782.54 483.28 C 784.60 480.70 787.03 478.45 789.64 476.42 C 799.27 470.06 812.57 470.16 821.87 477.11 C 825.47 479.20 827.41 484.08 831.98 484.29 C 835.73 484.27 837.82 480.62 840.37 478.41 C 843.17 476.19 843.38 471.64 840.89 469.12 C 831.11 457.38 815.12 451.23 799.99 453.07 C 789.66 454.17 779.96 459.10 772.59 466.35 M 434.56 527.02 C 434.00 534.79 438.48 541.84 444.14 546.77 C 484.67 587.52 525.29 628.20 565.48 669.31 C 524.16 712.38 482.53 755.18 440.97 798.01 C 436.83 803.28 435.25 810.58 437.16 817.05 C 438.70 822.38 442.50 826.98 447.34 829.69 C 455.35 834.37 465.94 833.79 473.67 828.78 C 476.61 826.73 479.01 824.04 481.57 821.56 C 499.85 803.49 517.34 784.65 535.40 766.36 C 560.78 739.71 586.30 713.19 611.64 686.49 C 620.11 677.70 620.67 662.69 612.67 653.41 C 593.16 633.24 573.34 613.35 553.62 593.37 C 527.26 566.43 500.79 539.61 474.58 512.53 C 470.60 508.09 464.93 505.27 459.00 504.70 C 446.55 503.74 434.63 514.49 434.56 527.02 M 205.57 696.60 C 196.54 717.24 191.91 739.54 189.87 761.91 C 188.17 786.69 189.33 811.82 195.19 836.02 C 206.29 884.56 233.57 929.16 271.42 961.45 C 282.07 970.73 293.55 979.07 305.81 986.10 C 333.30 1001.99 363.83 1013.23 395.48 1016.80 L 395.54 1016.97 C 421.80 1020.47 448.61 1020.24 474.69 1015.42 C 486.38 1013.51 497.88 1010.45 509.09 1006.64 C 527.27 1000.57 544.80 992.48 561.19 982.54 C 572.75 975.65 583.59 967.58 593.87 958.90 C 600.36 952.95 607.31 947.32 612.87 940.48 C 630.06 922.93 645.78 903.97 662.46 885.94 C 662.04 885.41 661.18 884.36 660.76 883.83 C 655.17 883.71 649.59 883.81 644.01 883.82 C 641.55 883.75 638.81 884.06 637.18 886.14 C 625.30 899.01 613.88 912.30 601.81 925.00 C 584.33 944.09 563.61 960.05 541.05 972.69 L 540.87 972.62 C 525.71 980.81 509.63 987.27 493.07 992.00 C 478.32 996.27 463.12 998.78 447.85 1000.10 C 424.47 1001.54 400.87 999.96 378.04 994.60 C 338.57 985.28 301.77 965.05 272.80 936.65 L 272.59 936.57 C 249.74 913.18 231.59 885.05 220.84 854.10 C 204.34 808.22 203.45 756.44 220.58 710.60 C 221.83 706.41 224.32 702.57 224.86 698.20 C 220.93 692.78 216.72 687.54 212.75 682.14 C 209.40 686.42 207.80 691.71 205.57 696.60 M 943.30 707.92 C 940.23 733.44 933.12 758.33 923.92 782.29 L 923.70 782.28 C 915.17 803.37 904.66 823.72 891.67 842.42 C 881.29 857.22 869.78 871.24 856.96 883.98 C 842.28 898.66 825.99 911.58 809.66 924.35 C 811.00 925.92 813.16 925.53 815.01 925.81 C 822.44 926.44 830.16 927.13 837.47 925.31 C 852.48 913.64 866.94 900.99 879.37 886.56 C 883.17 883.35 886.13 879.20 889.45 875.49 C 896.69 866.85 903.54 857.87 909.82 848.51 L 909.03 848.43 L 909.81 848.50 C 922.66 828.82 934.06 807.95 941.79 785.74 C 949.28 767.85 954.33 748.99 958.17 730.01 C 958.42 727.76 959.36 725.20 958.03 723.14 C 954.08 716.53 949.60 710.25 944.60 704.40 C 943.69 705.36 943.42 706.64 943.30 707.92 M 253.96 730.73 C 251.55 735.16 250.82 740.25 249.56 745.08 C 240.01 785.87 247.42 829.58 266.64 866.48 C 282.26 896.97 307.07 922.56 336.73 939.62 C 359.50 952.80 385.19 961.03 411.39 963.27 C 444.14 967.12 477.76 961.68 508.12 948.99 C 517.45 945.10 526.36 940.30 534.95 934.99 C 555.87 922.16 573.05 904.33 588.94 885.85 C 587.83 884.77 586.77 883.38 585.03 883.74 C 579.36 883.68 573.69 883.80 568.03 883.81 C 564.37 883.52 562.31 886.88 560.05 889.13 C 548.63 901.58 535.55 912.46 521.13 921.27 C 510.09 927.81 498.33 933.05 486.23 937.28 C 482.41 937.88 478.82 939.58 475.01 940.34 C 457.13 944.97 438.57 945.88 420.18 945.41 C 411.78 944.18 403.23 943.81 394.93 941.87 C 379.76 938.68 365.11 933.23 351.46 925.89 C 324.91 912.03 302.38 890.54 287.49 864.54 C 266.49 828.58 259.22 784.46 269.35 743.92 L 269.21 743.10 C 263.97 739.16 259.16 734.70 253.96 730.73 M 642.42 793.54 C 638.14 794.45 634.47 798.53 634.66 803.03 C 634.66 810.00 634.60 816.98 634.72 823.96 C 635.00 829.42 640.85 832.91 645.94 832.53 C 703.98 832.54 762.03 832.57 820.08 832.49 C 825.31 832.86 830.25 828.27 830.25 823.02 C 830.32 816.35 830.39 809.68 830.27 803.01 C 830.26 797.71 825.40 792.94 820.04 793.40 C 760.83 793.52 701.61 793.26 642.42 793.54 M 580.85 1046.01 C 581.80 1050.04 585.91 1052.86 589.99 1052.66 C 617.32 1052.53 644.65 1052.71 671.98 1052.62 C 676.80 1052.24 680.82 1056.09 681.81 1060.61 C 681.59 1070.70 681.73 1080.79 681.75 1090.89 C 681.73 1100.62 681.73 1110.35 681.72 1120.08 C 681.75 1127.39 681.74 1134.69 681.69 1142.00 C 681.60 1145.39 682.15 1148.96 680.64 1152.16 C 678.75 1154.46 676.11 1156.38 673.02 1156.42 C 645.33 1156.36 617.63 1156.43 589.94 1156.39 C 586.88 1156.12 583.84 1157.53 582.05 1160.02 C 577.91 1165.35 582.19 1174.00 588.89 1174.18 C 617.26 1174.25 645.65 1174.24 674.03 1174.17 C 683.40 1174.17 691.93 1168.33 696.35 1160.25 C 698.29 1156.45 699.34 1152.23 699.26 1147.96 C 699.19 1141.38 699.35 1134.80 699.25 1128.23 C 699.28 1119.87 699.26 1111.52 699.30 1103.17 C 699.28 1098.11 699.22 1093.07 699.29 1088.03 C 699.11 1080.50 699.48 1072.97 699.15 1065.46 C 699.68 1058.60 698.34 1051.37 694.32 1045.68 C 689.42 1039.04 681.45 1034.33 673.04 1034.61 C 645.37 1034.58 617.69 1034.61 590.02 1034.67 C 584.17 1034.17 579.08 1040.36 580.85 1046.01 M 380.64 1037.66 C 377.15 1040.62 378.03 1046.97 382.29 1048.76 C 396.15 1056.79 410.23 1064.48 424.65 1071.46 C 438.53 1078.25 452.78 1084.27 467.21 1089.81 C 483.01 1095.76 499.14 1100.89 515.46 1105.21 C 518.58 1105.90 522.26 1107.40 525.04 1104.99 C 528.60 1102.38 527.25 1097.65 527.46 1093.90 C 525.89 1092.02 524.57 1089.51 521.99 1088.93 C 502.83 1083.89 483.98 1077.68 465.58 1070.35 C 453.23 1065.47 441.15 1059.96 429.15 1054.28 C 420.10 1050.07 411.32 1045.29 402.62 1040.40 C 399.59 1038.76 396.64 1036.46 393.02 1036.54 C 388.93 1036.56 384.09 1034.58 380.64 1037.66 M 857.29 1038.29 C 849.31 1043.17 840.89 1047.27 832.59 1051.58 C 814.82 1060.11 796.83 1068.24 778.28 1074.94 C 763.48 1080.41 748.40 1085.06 733.14 1089.04 C 727.75 1090.94 727.67 1097.68 728.64 1102.39 C 730.20 1105.33 733.79 1107.33 737.07 1105.96 C 759.66 1100.18 781.93 1093.01 803.45 1084.01 L 803.51 1083.77 C 826.00 1074.79 847.67 1063.82 868.66 1051.78 C 871.73 1049.52 876.60 1048.38 877.23 1044.01 C 878.17 1040.17 875.03 1036.08 871.05 1036.20 C 866.43 1036.37 861.29 1035.38 857.29 1038.29 M 616.04 1079.92 C 618.74 1082.96 621.81 1085.65 624.61 1088.60 C 626.92 1090.91 629.19 1093.27 631.54 1095.55 C 609.37 1095.54 587.19 1095.59 565.02 1095.56 C 560.91 1095.23 556.88 1098.02 555.88 1102.04 C 554.23 1107.32 558.46 1113.40 564.06 1113.38 C 586.22 1113.43 608.38 1113.30 630.55 1113.46 C 630.63 1113.67 630.80 1114.08 630.89 1114.29 C 626.89 1118.14 622.94 1122.06 619.14 1126.11 C 616.00 1128.13 613.92 1132.13 615.14 1135.85 C 616.30 1141.20 623.33 1144.27 627.82 1140.83 C 631.76 1137.54 635.12 1133.62 638.81 1130.06 C 643.84 1124.98 649.01 1120.03 653.92 1114.84 C 655.92 1112.83 658.10 1110.97 659.79 1108.69 C 661.77 1105.69 661.30 1101.64 658.92 1099.02 C 655.37 1095.21 651.48 1091.74 647.84 1088.03 C 644.26 1084.52 640.84 1080.86 637.30 1077.32 C 632.47 1074.01 629.57 1066.85 622.98 1067.03 C 616.79 1066.93 612.54 1074.81 616.04 1079.92 Z" />
</g>
<g id="#21e0fdff">
<path fill="#21e0fd" opacity="1.00" d=" M 577.33 129.32 C 598.67 118.68 623.49 114.72 646.99 119.11 C 658.74 121.15 670.04 125.29 680.57 130.84 C 678.86 133.24 676.98 136.41 673.62 136.37 C 672.95 135.69 672.39 134.93 671.81 134.19 C 671.60 134.20 671.19 134.20 670.98 134.21 C 669.80 137.68 666.00 139.24 664.68 142.66 C 646.01 134.84 624.77 132.96 605.12 137.97 C 589.03 141.63 574.00 149.72 561.88 160.89 C 548.09 173.64 538.33 190.45 533.41 208.53 C 532.54 211.93 531.98 215.41 531.02 218.80 C 530.27 216.77 529.76 214.66 529.45 212.53 C 526.37 212.45 523.27 212.74 520.41 213.96 C 519.95 211.86 519.48 209.75 518.99 207.66 C 517.87 211.04 517.32 214.56 516.96 218.09 C 516.56 217.77 515.76 217.13 515.36 216.81 C 514.95 214.84 515.49 212.83 515.81 210.89 C 522.77 176.35 545.70 145.15 577.33 129.32 Z" />
</g>
<g id="#3fb8fcff">
<path fill="#3fb8fc" opacity="1.00" d=" M 901.67 122.03 C 910.50 121.14 919.75 123.80 926.59 129.50 C 934.41 135.98 939.21 145.94 939.46 156.09 C 939.67 170.54 929.97 184.63 916.23 189.28 C 905.02 193.34 891.74 190.94 882.74 183.11 C 872.92 174.77 868.33 160.71 871.56 148.21 C 874.76 134.31 887.39 123.15 901.67 122.03 M 890.38 153.37 C 886.84 154.57 887.79 161.51 891.90 160.87 C 899.60 160.98 907.31 160.69 915.01 160.91 C 917.20 160.78 920.18 161.56 921.36 159.08 C 921.69 156.96 921.91 153.44 918.97 153.26 C 909.45 153.14 899.89 152.96 890.38 153.37 Z" />
</g>
<g id="#57a3fcff">
<path fill="#57a3fc" opacity="1.00" d=" M 963.16 151.96 C 964.91 134.03 982.89 119.49 1000.85 122.14 C 1000.73 122.54 1000.51 123.35 1000.39 123.75 C 1001.47 123.95 1002.57 124.16 1003.68 124.36 C 1001.73 125.60 998.86 126.49 998.52 129.14 C 997.81 132.56 997.52 136.15 995.64 139.19 C 995.89 139.78 996.15 140.37 996.43 140.96 C 992.24 140.93 987.92 140.29 983.88 141.66 C 982.54 143.14 981.60 144.95 981.84 147.00 C 981.93 154.01 981.71 161.03 981.82 168.04 C 981.71 169.84 983.08 171.86 985.03 171.77 C 989.38 171.96 993.74 171.71 998.10 171.85 C 995.65 174.57 991.38 176.50 991.34 180.66 C 990.94 184.02 989.92 187.62 991.68 190.80 C 973.75 188.31 959.96 169.89 963.16 151.96 Z" />
</g>
<g id="#5d9cfbff">
<path fill="#5d9cfb" opacity="1.00" d=" M 1000.85 122.14 C 1016.74 123.34 1029.87 137.41 1031.29 153.07 C 1032.91 166.93 1025.00 181.30 1012.55 187.52 C 1006.17 190.85 998.76 191.77 991.68 190.80 C 989.92 187.62 990.94 184.02 991.34 180.66 C 991.38 176.50 995.65 174.57 998.10 171.85 C 1002.01 171.82 1005.94 172.13 1009.84 171.70 C 1012.04 171.41 1012.24 168.77 1012.20 167.02 C 1012.16 160.00 1012.32 152.99 1012.21 145.97 C 1012.44 144.08 1011.20 141.71 1009.07 141.79 C 1000.67 141.67 992.27 141.88 983.88 141.66 C 987.92 140.29 992.24 140.93 996.43 140.96 C 996.15 140.37 995.89 139.78 995.64 139.19 C 997.52 136.15 997.81 132.56 998.52 129.14 C 998.86 126.49 1001.73 125.60 1003.68 124.36 C 1002.57 124.16 1001.47 123.95 1000.39 123.75 C 1000.51 123.35 1000.73 122.54 1000.85 122.14 Z" />
</g>
<g id="#ab56fbff">
<path fill="#ab56fb" opacity="1.00" d=" M 1081.53 122.80 C 1089.43 121.52 1098.08 121.65 1105.22 125.71 C 1114.75 130.73 1121.63 140.40 1123.30 151.03 C 1124.06 157.96 1123.58 165.26 1120.32 171.55 C 1115.27 181.63 1105.35 189.59 1093.97 190.90 C 1078.78 193.33 1062.96 183.70 1057.50 169.45 C 1051.14 154.29 1057.64 135.14 1071.83 126.85 C 1074.79 124.96 1078.11 123.64 1081.53 122.80 M 1074.62 146.40 C 1077.58 150.14 1081.32 153.19 1084.39 156.84 C 1080.83 160.44 1076.98 163.82 1074.12 168.03 C 1075.55 169.51 1076.71 171.59 1078.89 172.09 C 1082.91 169.14 1085.93 165.02 1089.92 161.99 C 1092.75 164.85 1095.54 167.75 1098.42 170.56 C 1100.59 173.55 1104.73 169.64 1104.42 166.93 C 1101.60 163.26 1097.94 160.34 1094.87 156.89 C 1097.79 153.40 1101.25 150.40 1104.19 146.93 C 1105.46 144.39 1102.63 142.78 1101.10 141.31 C 1096.52 143.74 1093.31 147.95 1089.68 151.53 C 1086.21 148.04 1082.73 144.56 1078.95 141.41 C 1077.11 142.44 1074.09 143.85 1074.62 146.40 Z" />
</g>
<g id="#25dbfcff">
<path fill="#25dbfc" opacity="1.00" d=" M 680.57 130.84 C 693.28 137.87 704.70 147.24 713.95 158.45 C 711.56 158.51 709.42 157.51 708.08 155.52 C 707.52 156.50 707.00 157.50 706.37 158.44 C 704.30 158.95 701.43 156.36 699.97 158.87 C 699.03 161.82 699.66 165.07 701.50 167.55 C 701.45 168.09 701.36 169.17 701.31 169.71 C 691.41 158.01 678.88 148.51 664.68 142.66 C 666.00 139.24 669.80 137.68 670.98 134.21 C 671.19 134.20 671.60 134.20 671.81 134.19 C 672.39 134.93 672.95 135.69 673.62 136.37 C 676.98 136.41 678.86 133.24 680.57 130.84 Z" />
</g>
<g id="#020f39ff">
<path fill="#020f39" opacity="1.00" d=" M 981.84 147.00 C 981.60 144.95 982.54 143.14 983.88 141.66 C 992.27 141.88 1000.67 141.67 1009.07 141.79 C 1011.20 141.71 1012.44 144.08 1012.21 145.97 C 1012.32 152.99 1012.16 160.00 1012.20 167.02 C 1012.24 168.77 1012.04 171.41 1009.84 171.70 C 1005.94 172.13 1002.01 171.82 998.10 171.85 C 993.74 171.71 989.38 171.96 985.03 171.77 C 983.08 171.86 981.71 169.84 981.82 168.04 C 981.71 161.03 981.93 154.01 981.84 147.00 Z" />
</g>
<g id="#041140ff">
<path fill="#041140" opacity="1.00" d=" M 1074.62 146.40 C 1074.09 143.85 1077.11 142.44 1078.95 141.41 C 1082.73 144.56 1086.21 148.04 1089.68 151.53 C 1093.31 147.95 1096.52 143.74 1101.10 141.31 C 1102.63 142.78 1105.46 144.39 1104.19 146.93 C 1101.25 150.40 1097.79 153.40 1094.87 156.89 C 1097.94 160.34 1101.60 163.26 1104.42 166.93 C 1104.73 169.64 1100.59 173.55 1098.42 170.56 C 1095.54 167.75 1092.75 164.85 1089.92 161.99 C 1085.93 165.02 1082.91 169.14 1078.89 172.09 C 1076.71 171.59 1075.55 169.51 1074.12 168.03 C 1076.98 163.82 1080.83 160.44 1084.39 156.84 C 1081.32 153.19 1077.58 150.14 1074.62 146.40 Z" />
</g>
<g id="#24e2fbff">
<path fill="#24e2fb" opacity="1.00" d=" M 625.42 149.55 C 629.04 148.23 633.24 151.13 633.17 154.98 C 633.15 159.65 633.37 164.34 632.96 168.99 C 631.66 174.10 624.03 174.56 621.82 169.92 C 621.10 164.99 621.62 159.96 621.58 154.99 C 621.35 152.58 623.19 150.28 625.42 149.55 Z" />
</g>
<g id="#031037ff">
<path fill="#031037" opacity="1.00" d=" M 890.38 153.37 C 899.89 152.96 909.45 153.14 918.97 153.26 C 921.91 153.44 921.69 156.96 921.36 159.08 C 920.18 161.56 917.20 160.78 915.01 160.91 C 907.31 160.69 899.60 160.98 891.90 160.87 C 887.79 161.51 886.84 154.57 890.38 153.37 Z" />
</g>
<g id="#2fcefcff">
<path fill="#2fcefc" opacity="1.00" d=" M 708.08 155.52 C 709.42 157.51 711.56 158.51 713.95 158.45 L 714.06 158.46 C 731.37 179.62 741.76 206.83 740.80 234.32 C 740.44 235.08 740.03 235.83 739.58 236.54 C 736.05 236.16 732.82 234.57 729.55 233.30 C 728.90 231.57 728.25 229.83 727.61 228.11 C 726.63 229.64 725.66 231.17 724.68 232.70 C 723.92 210.04 716.32 187.18 701.29 169.95 L 701.31 169.71 C 701.36 169.17 701.45 168.09 701.50 167.55 C 699.66 165.07 699.03 161.82 699.97 158.87 C 701.43 156.36 704.30 158.95 706.37 158.44 C 707.00 157.50 707.52 156.50 708.08 155.52 Z" />
</g>
<g id="#21ddfaff">
<path fill="#21ddfa" opacity="1.00" d=" M 561.05 185.91 C 558.92 180.90 564.94 175.22 569.75 178.04 C 573.11 181.30 576.02 184.99 579.56 188.07 C 579.50 190.20 579.89 192.65 578.03 194.18 C 576.33 196.85 571.94 197.80 569.85 195.13 C 567.09 191.89 563.68 189.25 561.05 185.91 Z" />
</g>
<g id="#29d2fcff">
<path fill="#29d2fc" opacity="1.00" d=" M 684.06 179.05 C 686.70 175.95 692.14 177.40 693.42 181.11 C 693.92 183.16 694.23 185.79 692.52 187.38 C 689.38 190.51 686.44 193.93 682.92 196.63 C 677.92 197.87 673.97 192.62 675.07 187.97 C 678.16 185.10 681.18 182.14 684.06 179.05 Z" />
</g>
<g id="#24c8faff">
<path fill="#24c8fa" opacity="1.00" d=" M 620.96 209.69 C 623.85 207.89 626.52 205.06 630.29 205.82 L 629.83 206.46 C 627.42 208.88 626.18 213.46 629.15 215.94 C 631.22 215.92 633.26 215.46 635.29 215.08 C 635.37 215.95 635.45 216.83 635.53 217.72 C 636.39 217.98 637.26 218.23 638.15 218.47 C 635.07 219.65 632.27 221.54 629.02 222.24 C 625.99 222.89 622.40 221.71 621.03 218.77 C 620.83 218.48 620.42 217.89 620.22 217.59 C 618.11 217.06 615.97 216.69 613.84 216.30 C 613.69 214.68 613.55 213.05 613.41 211.44 C 610.16 210.80 606.58 210.01 603.46 211.52 C 600.96 213.53 598.96 216.07 596.67 218.31 C 593.84 215.94 594.56 211.39 598.16 210.27 C 605.73 209.39 613.38 210.23 620.96 209.69 Z" />
</g>
<g id="#32c8f9ff">
<path fill="#32c8f9" opacity="1.00" d=" M 629.15 215.94 C 626.18 213.46 627.42 208.88 629.83 206.46 C 632.33 206.06 633.51 209.57 635.96 209.58 C 639.06 209.60 642.17 209.50 645.26 209.28 C 647.85 209.34 649.83 206.30 652.49 207.57 C 654.59 209.11 656.64 211.11 657.02 213.83 C 652.80 216.36 647.77 216.39 643.15 217.71 C 641.49 217.99 639.84 218.79 638.15 218.47 C 637.26 218.23 636.39 217.98 635.53 217.72 C 635.45 216.83 635.37 215.95 635.29 215.08 C 633.26 215.46 631.22 215.92 629.15 215.94 Z" />
</g>
<g id="#3acafcff">
<path fill="#3acafc" opacity="1.00" d=" M 516.96 218.09 C 517.32 214.56 517.87 211.04 518.99 207.66 C 519.48 209.75 519.95 211.86 520.41 213.96 C 523.27 212.74 526.37 212.45 529.45 212.53 C 529.76 214.66 530.27 216.77 531.02 218.80 C 530.59 223.84 530.17 228.99 530.22 234.11 C 556.15 234.21 582.09 234.10 608.02 234.18 C 611.50 234.23 616.09 233.26 618.14 236.95 C 619.77 240.54 619.82 245.80 616.29 248.30 C 613.92 250.10 610.82 249.73 608.04 249.80 C 574.33 249.68 540.61 249.88 506.91 249.77 C 500.23 249.51 497.62 239.61 502.98 235.89 C 505.73 233.26 509.72 234.48 513.11 234.05 C 514.07 233.05 513.36 231.33 513.61 230.06 C 513.41 225.45 514.58 220.93 514.74 216.33 L 515.36 216.81 C 515.76 217.13 516.56 217.77 516.96 218.09 Z" />
</g>
<g id="#35d1fbff">
<path fill="#35d1fb" opacity="1.00" d=" M 603.46 211.52 C 606.58 210.01 610.16 210.80 613.41 211.44 C 613.55 213.05 613.69 214.68 613.84 216.30 C 615.97 216.69 618.11 217.06 620.22 217.59 C 620.42 217.89 620.83 218.48 621.03 218.77 C 612.91 218.44 604.74 219.29 596.67 218.31 C 598.96 216.07 600.96 213.53 603.46 211.52 Z" />
</g>
<g id="#42c2fcff">
<path fill="#42c2fc" opacity="1.00" d=" M 727.61 228.11 C 728.25 229.83 728.90 231.57 729.55 233.30 C 732.82 234.57 736.05 236.16 739.58 236.54 C 740.03 235.83 740.44 235.08 740.80 234.32 C 744.93 234.42 750.13 233.06 753.13 236.79 C 757.23 241.17 754.18 249.59 747.92 249.66 C 712.61 249.91 677.28 249.78 641.96 249.74 C 634.51 249.64 632.72 237.81 638.96 234.68 C 640.23 234.08 641.69 234.27 643.07 234.19 C 669.03 234.10 695.00 234.16 720.96 234.16 C 722.32 234.10 724.18 234.38 724.68 232.70 C 725.66 231.17 726.63 229.64 727.61 228.11 Z" />
</g>
<g id="#a15cfbff">
<path fill="#a15cfb" opacity="1.00" d=" M 465.38 232.61 C 468.67 230.93 472.85 232.09 475.14 234.90 C 479.05 239.35 476.84 247.43 471.04 248.99 C 461.32 252.55 451.89 256.80 442.48 261.09 C 440.58 260.05 439.20 258.47 439.09 256.23 C 437.84 256.09 436.60 255.96 435.37 255.82 C 433.30 252.28 428.66 252.47 425.86 249.80 C 438.60 243.14 451.98 237.78 465.38 232.61 Z" />
</g>
<g id="#5e99fcff">
<path fill="#5e99fc" opacity="1.00" d=" M 783.18 232.25 C 787.34 230.29 791.50 233.31 795.40 234.59 C 821.82 244.65 846.98 257.84 870.53 273.45 C 873.15 275.39 876.87 276.77 877.48 280.39 C 878.61 284.25 875.94 288.56 872.00 289.31 C 868.14 289.80 863.85 289.94 860.61 287.45 C 836.32 271.81 810.37 258.79 783.33 248.64 C 776.37 246.16 776.31 234.85 783.18 232.25 Z" />
</g>
<g id="#ab56fcff">
<path fill="#ab56fc" opacity="1.00" d=" M 387.24 272.27 C 399.68 264.08 412.51 256.42 425.86 249.80 C 428.66 252.47 433.30 252.28 435.37 255.82 C 436.60 255.96 437.84 256.09 439.09 256.23 C 439.20 258.47 440.58 260.05 442.48 261.09 L 442.59 261.17 C 425.12 269.25 408.47 278.97 392.14 289.10 C 388.31 289.71 383.51 290.66 380.41 287.68 C 377.75 285.39 377.48 281.11 379.09 278.17 C 381.31 275.61 384.48 274.16 387.24 272.27 Z" />
</g>
<g id="#6d8dfcff">
<path fill="#6d8dfc" opacity="1.00" d=" M 596.25 297.03 C 604.94 289.48 616.32 284.57 627.97 285.15 C 642.02 284.62 655.41 292.17 663.92 303.05 C 665.48 305.71 664.95 309.49 662.43 311.41 C 659.95 313.53 657.68 317.11 653.97 316.66 C 650.31 316.70 648.56 312.95 646.04 310.94 C 637.76 303.81 625.48 302.69 615.52 306.71 C 615.91 305.72 616.30 304.73 616.70 303.75 C 613.10 302.64 609.38 302.03 605.74 301.14 C 602.58 299.75 599.60 297.95 596.25 297.03 Z" />
</g>
<g id="#807cfcff">
<path fill="#807cfc" opacity="1.00" d=" M 580.29 328.24 C 581.44 316.36 587.47 305.06 596.25 297.03 C 599.60 297.95 602.58 299.75 605.74 301.14 C 609.38 302.03 613.10 302.64 616.70 303.75 C 616.30 304.73 615.91 305.72 615.52 306.71 L 615.42 306.96 C 607.56 310.47 602.19 317.91 599.64 325.96 C 599.12 324.96 598.62 323.97 598.12 322.99 C 593.70 325.53 588.73 326.72 583.74 327.51 C 583.20 326.69 582.66 325.87 582.13 325.05 C 581.98 326.22 581.84 327.39 581.71 328.56 C 581.35 328.48 580.65 328.32 580.29 328.24 Z" />
</g>
<g id="#ba47fcff">
<path fill="#ba47fc" opacity="1.00" d=" M 361.40 314.64 C 378.03 311.23 394.94 308.90 411.95 309.24 C 428.18 308.88 444.25 311.53 460.06 314.96 L 459.23 315.10 C 457.20 315.43 455.21 315.94 453.22 316.43 C 454.34 317.96 456.47 319.20 456.29 321.35 C 456.31 322.75 456.25 324.17 456.20 325.58 C 460.40 326.79 465.44 326.93 468.41 330.59 C 466.56 332.36 464.71 334.13 462.84 335.88 C 437.60 329.31 411.11 327.48 385.25 330.96 C 384.06 331.04 382.80 331.56 381.65 331.14 C 379.17 330.14 376.54 329.69 373.90 329.48 C 376.31 329.18 378.72 328.83 381.12 328.42 C 377.65 326.65 373.67 326.44 369.96 325.39 C 370.64 324.49 371.32 323.59 372.01 322.70 C 371.18 321.86 370.35 321.02 369.53 320.19 C 368.60 321.15 367.68 322.12 366.75 323.08 C 366.15 321.73 365.62 320.35 365.14 318.96 C 361.11 319.19 356.95 319.49 353.25 321.24 C 351.52 322.22 349.66 320.93 347.94 320.54 C 352.30 318.90 356.83 317.80 361.37 316.81 C 361.38 316.38 361.39 315.52 361.40 315.09 L 361.40 314.64 Z" />
</g>
<g id="#23e8fdff">
<path fill="#23e8fd" opacity="1.00" d=" M 807.48 312.84 C 824.99 308.84 843.12 308.82 860.99 309.54 C 899.44 312.52 937.21 325.44 968.99 347.38 C 968.72 348.37 968.45 349.35 968.20 350.34 C 964.95 347.92 961.87 344.29 957.36 345.28 C 957.40 344.49 957.45 343.72 957.52 342.95 C 954.75 341.37 951.98 339.82 949.21 338.28 C 948.35 339.42 947.51 340.57 946.67 341.71 C 945.19 341.57 943.73 341.43 942.27 341.30 C 942.75 343.45 943.26 345.59 943.77 347.74 C 942.65 347.68 941.53 347.63 940.43 347.58 C 940.06 347.93 939.32 348.64 938.94 349.00 C 942.19 350.27 945.72 351.49 949.15 350.03 C 949.42 348.88 949.71 347.72 950.03 346.58 C 951.20 348.32 952.16 350.21 952.87 352.20 C 951.52 353.01 950.20 353.83 948.88 354.66 C 950.08 354.52 951.31 354.38 952.54 354.25 C 952.17 355.16 951.81 356.07 951.46 356.99 C 952.92 357.18 954.38 357.35 955.83 357.70 C 956.22 359.22 954.55 360.15 953.91 361.33 C 924.27 342.25 889.63 330.79 854.35 329.45 C 845.50 329.03 836.64 329.50 827.80 329.80 C 828.16 329.44 828.89 328.72 829.25 328.36 C 834.89 327.58 840.60 327.35 846.21 326.32 C 840.37 325.87 834.45 325.90 828.75 324.36 C 830.92 323.72 833.16 323.44 835.41 323.23 C 833.69 321.44 831.29 321.13 828.93 321.26 C 829.49 320.01 830.06 318.77 830.63 317.52 C 826.43 316.20 821.85 316.17 818.05 313.75 C 814.50 313.59 810.82 314.48 807.48 312.84 Z" />
</g>
<g id="#2edafdff">
<path fill="#2edafd" opacity="1.00" d=" M 803.54 313.29 C 804.83 313.13 806.17 312.48 807.48 312.84 C 810.82 314.48 814.50 313.59 818.05 313.75 C 821.85 316.17 826.43 316.20 830.63 317.52 C 830.06 318.77 829.49 320.01 828.93 321.26 C 831.29 321.13 833.69 321.44 835.41 323.23 C 833.16 323.44 830.92 323.72 828.75 324.36 C 834.45 325.90 840.37 325.87 846.21 326.32 C 840.60 327.35 834.89 327.58 829.25 328.36 C 828.89 328.72 828.16 329.44 827.80 329.80 L 827.38 330.22 C 805.84 332.15 784.67 337.63 764.70 345.89 C 764.73 345.44 764.81 344.52 764.85 344.07 C 766.64 343.14 768.44 342.21 770.22 341.24 C 768.29 341.08 766.37 340.93 764.45 340.79 C 764.81 339.95 765.17 339.12 765.55 338.29 C 764.33 337.86 763.12 337.43 761.92 337.01 C 761.78 335.88 761.66 334.75 761.54 333.63 C 760.78 333.18 760.03 332.74 759.28 332.30 C 760.11 331.59 760.95 330.88 761.80 330.17 C 760.38 329.33 758.95 328.49 757.55 327.66 C 772.34 321.33 787.78 316.53 803.54 313.29 Z" />
</g>
<g id="#c644fcff">
<path fill="#c644fc" opacity="1.00" d=" M 336.84 322.04 C 344.93 319.44 352.96 316.40 361.40 315.09 C 361.39 315.52 361.38 316.38 361.37 316.81 C 356.83 317.80 352.30 318.90 347.94 320.54 C 349.66 320.93 351.52 322.22 353.25 321.24 C 356.95 319.49 361.11 319.19 365.14 318.96 C 365.62 320.35 366.15 321.73 366.75 323.08 C 367.68 322.12 368.60 321.15 369.53 320.19 C 370.35 321.02 371.18 321.86 372.01 322.70 C 371.32 323.59 370.64 324.49 369.96 325.39 C 373.67 326.44 377.65 326.65 381.12 328.42 C 378.72 328.83 376.31 329.18 373.90 329.48 C 376.54 329.69 379.17 330.14 381.65 331.14 C 377.14 332.35 372.50 332.90 367.97 333.98 C 339.70 339.92 312.87 352.35 289.83 369.75 C 288.70 370.37 287.66 371.61 286.31 371.58 C 286.06 371.52 285.56 371.40 285.31 371.35 C 282.50 370.76 279.64 370.59 276.79 370.43 C 275.39 372.89 273.70 375.15 271.80 377.24 C 270.73 376.30 269.66 375.36 268.59 374.43 C 269.36 373.95 270.13 373.47 270.91 373.00 C 270.90 372.72 270.87 372.17 270.86 371.89 C 270.00 371.56 269.15 371.24 268.30 370.92 C 270.43 369.13 272.27 367.01 273.46 364.47 C 274.01 365.31 274.56 366.15 275.12 367.01 C 275.17 365.67 275.21 364.33 275.26 363.01 C 275.99 362.51 276.72 362.02 277.46 361.53 C 276.58 360.69 275.70 359.86 274.83 359.02 C 272.20 360.76 270.42 363.38 268.97 366.13 C 266.79 366.87 264.50 367.23 262.20 366.94 C 283.77 347.22 309.32 331.86 336.84 322.04 Z" />
</g>
<g id="#ab54fcff">
<path fill="#ab54fc" opacity="1.00" d=" M 453.22 316.43 C 455.21 315.94 457.20 315.43 459.23 315.10 C 467.12 316.24 474.62 319.21 482.21 321.56 C 499.71 327.61 516.49 335.84 532.00 345.96 C 530.98 350.54 531.69 355.26 530.70 359.85 C 531.58 361.14 533.40 361.57 534.71 362.43 C 532.26 363.90 529.88 365.74 526.90 365.91 C 507.43 352.42 485.70 342.16 462.84 335.88 C 464.71 334.13 466.56 332.36 468.41 330.59 C 465.44 326.93 460.40 326.79 456.20 325.58 C 456.25 324.17 456.31 322.75 456.29 321.35 C 456.47 319.20 454.34 317.96 453.22 316.43 Z" />
</g>
<g id="#9164fbff">
<path fill="#9164fb" opacity="1.00" d=" M 583.74 327.51 C 588.73 326.72 593.70 325.53 598.12 322.99 C 598.62 323.97 599.12 324.96 599.64 325.96 C 598.26 331.50 598.45 337.30 599.69 342.85 C 594.86 344.55 590.15 346.59 585.10 347.55 C 584.65 347.27 583.75 346.71 583.30 346.43 C 583.31 348.43 583.30 350.44 583.38 352.46 C 580.60 346.73 579.95 340.24 579.71 333.96 C 579.79 332.06 579.42 329.99 580.29 328.24 C 580.65 328.32 581.35 328.48 581.71 328.56 C 581.84 327.39 581.98 326.22 582.13 325.05 C 582.66 325.87 583.20 326.69 583.74 327.51 Z" />
</g>
<g id="#36cefdff">
<path fill="#36cefd" opacity="1.00" d=" M 726.21 344.28 C 736.16 337.87 746.70 332.40 757.55 327.66 C 758.95 328.49 760.38 329.33 761.80 330.17 C 760.95 330.88 760.11 331.59 759.28 332.30 C 760.03 332.74 760.78 333.18 761.54 333.63 C 761.66 334.75 761.78 335.88 761.92 337.01 C 763.12 337.43 764.33 337.86 765.55 338.29 C 765.17 339.12 764.81 339.95 764.45 340.79 C 766.37 340.93 768.29 341.08 770.22 341.24 C 768.44 342.21 766.64 343.14 764.85 344.07 C 764.81 344.52 764.73 345.44 764.70 345.89 L 764.68 346.14 C 755.17 350.03 746.05 354.85 737.34 360.30 C 736.32 358.70 735.07 357.26 733.05 357.13 C 733.93 356.26 734.82 355.38 735.72 354.51 C 734.62 354.01 733.54 353.51 732.46 353.02 C 732.77 352.10 733.09 351.19 733.43 350.29 C 732.83 349.77 732.25 349.26 731.68 348.76 C 732.11 347.64 732.54 346.53 732.99 345.43 C 730.68 345.36 728.34 345.25 726.21 344.28 Z" />
</g>
<g id="#23f1fdff">
<path fill="#23f1fd" opacity="1.00" d=" M 949.21 338.28 C 951.98 339.82 954.75 341.37 957.52 342.95 C 957.45 343.72 957.40 344.49 957.36 345.28 C 961.87 344.29 964.95 347.92 968.20 350.34 C 968.45 349.35 968.72 348.37 968.99 347.38 C 989.56 361.22 1007.67 378.61 1022.80 398.22 C 1052.75 438.14 1069.46 488.01 1068.85 537.96 C 1068.96 574.88 1060.24 611.83 1043.53 644.75 C 1043.24 644.78 1042.65 644.83 1042.36 644.85 C 1039.25 641.46 1036.82 637.51 1033.74 634.10 C 1032.23 632.11 1029.40 629.92 1031.06 627.18 C 1048.44 585.84 1054.44 539.21 1045.19 495.13 C 1039.55 467.73 1028.34 441.51 1012.62 418.38 C 997.00 395.81 977.02 376.18 953.91 361.33 C 954.55 360.15 956.22 359.22 955.83 357.70 C 954.38 357.35 952.92 357.18 951.46 356.99 C 951.81 356.07 952.17 355.16 952.54 354.25 C 951.31 354.38 950.08 354.52 948.88 354.66 C 950.20 353.83 951.52 353.01 952.87 352.20 C 952.16 350.21 951.20 348.32 950.03 346.58 C 949.71 347.72 949.42 348.88 949.15 350.03 C 945.72 351.49 942.19 350.27 938.94 349.00 C 939.32 348.64 940.06 347.93 940.43 347.58 C 941.53 347.63 942.65 347.68 943.77 347.74 C 943.26 345.59 942.75 343.45 942.27 341.30 C 943.73 341.43 945.19 341.57 946.67 341.71 C 947.51 340.57 948.35 339.42 949.21 338.28 Z" />
</g>
<g id="#9f52fbff">
<path fill="#9f52fb" opacity="1.00" d=" M 585.10 347.55 C 590.15 346.59 594.86 344.55 599.69 342.85 C 602.33 352.28 609.76 360.02 618.93 363.33 C 620.23 365.22 620.75 368.33 623.47 368.68 C 629.10 369.96 633.09 363.43 638.62 364.34 C 640.14 365.71 639.90 368.27 640.85 370.08 C 641.70 370.35 642.60 370.51 643.50 370.72 C 641.95 373.81 643.05 377.19 645.11 379.75 C 635.22 383.36 624.30 384.30 614.12 381.35 C 600.10 377.27 588.33 366.18 583.38 352.46 C 583.30 350.44 583.31 348.43 583.30 346.43 C 583.75 346.71 584.65 347.27 585.10 347.55 Z" />
</g>
<g id="#3dc8fdff">
<path fill="#3dc8fd" opacity="1.00" d=" M 701.34 362.28 C 709.10 355.60 717.50 349.66 726.21 344.28 C 728.34 345.25 730.68 345.36 732.99 345.43 C 732.54 346.53 732.11 347.64 731.68 348.76 C 732.25 349.26 732.83 349.77 733.43 350.29 C 733.09 351.19 732.77 352.10 732.46 353.02 C 733.54 353.51 734.62 354.01 735.72 354.51 C 734.82 355.38 733.93 356.26 733.05 357.13 C 735.07 357.26 736.32 358.70 737.34 360.30 C 730.53 364.44 724.09 369.13 717.72 373.91 C 717.99 372.50 718.19 371.07 718.40 369.66 C 716.04 371.18 713.70 372.72 711.34 374.22 C 711.76 372.87 712.19 371.52 712.63 370.18 C 710.96 370.00 709.29 369.82 707.63 369.65 C 706.88 368.06 706.14 366.47 705.40 364.89 C 705.79 364.01 706.20 363.14 706.62 362.27 C 704.85 362.27 703.10 362.28 701.34 362.28 Z" />
</g>
<g id="#a15dfcff">
<path fill="#a15dfc" opacity="1.00" d=" M 532.00 345.96 C 542.97 352.89 553.24 360.91 563.00 369.45 C 562.89 370.05 562.68 371.24 562.57 371.84 C 563.60 372.99 564.65 374.13 565.69 375.29 C 564.51 376.12 563.33 376.96 562.16 377.81 C 563.31 379.63 564.48 381.45 565.66 383.27 C 562.66 384.26 560.10 387.27 556.73 386.51 C 553.08 384.91 550.79 380.28 546.35 380.76 C 540.02 375.61 533.70 370.43 526.90 365.91 C 529.88 365.74 532.26 363.90 534.71 362.43 C 533.40 361.57 531.58 361.14 530.70 359.85 C 531.69 355.26 530.98 350.54 532.00 345.96 Z" />
</g>
<g id="#9a5afbff">
<path fill="#9a5afb" opacity="1.00" d=" M 650.16 353.17 C 652.31 350.61 656.75 350.59 659.00 353.02 C 662.10 355.94 666.34 359.51 664.25 364.30 C 659.53 371.15 652.58 376.25 645.11 379.75 C 643.05 377.19 641.95 373.81 643.50 370.72 C 642.60 370.51 641.70 370.35 640.85 370.08 C 639.90 368.27 640.14 365.71 638.62 364.34 C 633.09 363.43 629.10 369.96 623.47 368.68 C 620.75 368.33 620.23 365.22 618.93 363.33 C 624.57 364.44 630.52 365.12 636.04 363.05 C 641.63 361.27 646.31 357.50 650.16 353.17 Z" />
</g>
<g id="#cf3ffcff">
<path fill="#cf3ffc" opacity="1.00" d=" M 268.97 366.13 C 270.42 363.38 272.20 360.76 274.83 359.02 C 275.70 359.86 276.58 360.69 277.46 361.53 C 276.72 362.02 275.99 362.51 275.26 363.01 C 275.21 364.33 275.17 365.67 275.12 367.01 C 274.56 366.15 274.01 365.31 273.46 364.47 C 272.27 367.01 270.43 369.13 268.30 370.92 C 269.15 371.24 270.00 371.56 270.86 371.89 C 270.87 372.17 270.90 372.72 270.91 373.00 C 270.13 373.47 269.36 373.95 268.59 374.43 C 269.66 375.36 270.73 376.30 271.80 377.24 C 273.70 375.15 275.39 372.89 276.79 370.43 C 279.64 370.59 282.50 370.76 285.31 371.35 C 285.56 371.40 286.06 371.52 286.31 371.58 L 286.87 371.72 C 267.87 387.09 250.99 405.25 238.33 426.24 C 225.75 446.45 216.89 468.90 211.54 492.08 C 205.76 517.58 205.05 544.15 208.82 570.00 C 211.73 589.02 217.20 607.60 224.52 625.37 C 234.85 649.38 249.39 671.51 267.00 690.81 C 265.29 692.93 265.26 695.73 264.61 698.25 C 265.52 699.59 266.45 700.92 267.37 702.26 C 266.98 704.76 266.67 707.28 266.49 709.82 C 263.77 710.78 260.93 710.19 258.35 709.12 C 218.12 668.29 192.01 613.27 187.86 555.95 C 186.45 533.65 187.42 511.12 192.23 489.25 C 196.80 467.54 204.65 446.55 215.00 426.94 C 227.01 404.33 243.47 384.29 262.20 366.94 C 264.50 367.23 266.79 366.87 268.97 366.13 Z" />
</g>
<g id="#43c2fdff">
<path fill="#43c2fd" opacity="1.00" d=" M 701.11 362.28 L 701.34 362.28 C 703.10 362.28 704.85 362.27 706.62 362.27 C 706.20 363.14 705.79 364.01 705.40 364.89 C 706.14 366.47 706.88 368.06 707.63 369.65 C 709.29 369.82 710.96 370.00 712.63 370.18 C 712.19 371.52 711.76 372.87 711.34 374.22 C 713.70 372.72 716.04 371.18 718.40 369.66 C 718.19 371.07 717.99 372.50 717.72 373.91 C 710.71 379.77 703.74 385.73 697.15 392.08 L 697.08 392.02 C 696.09 391.62 695.02 389.51 693.86 390.69 C 692.41 391.71 691.10 392.90 689.77 394.06 C 689.56 392.95 689.36 391.84 689.17 390.74 C 687.18 390.16 685.16 389.67 683.14 389.26 C 683.69 388.05 684.25 386.83 684.82 385.62 C 681.94 385.55 679.06 385.64 676.21 385.35 C 683.94 377.07 692.47 369.59 701.11 362.28 Z" />
</g>
<g id="#b54dfcff">
<path fill="#b54dfc" opacity="1.00" d=" M 337.56 385.47 C 359.54 373.86 384.21 368.12 408.92 366.65 C 409.55 367.35 410.18 368.04 410.82 368.74 C 408.21 368.93 405.61 369.16 403.02 369.49 C 407.27 370.23 411.56 370.64 415.82 371.27 C 418.85 375.16 424.29 375.31 428.54 377.15 C 427.04 378.50 425.64 379.94 424.31 381.44 C 425.69 382.30 427.21 383.01 428.41 384.14 C 429.06 385.42 428.05 386.66 427.61 387.82 C 409.58 386.30 391.30 387.88 373.92 392.98 C 370.62 392.27 367.51 390.94 364.45 389.56 C 364.61 388.51 364.77 387.46 364.94 386.41 C 365.35 386.71 366.17 387.29 366.57 387.58 C 367.41 386.61 368.25 385.64 369.11 384.69 C 366.50 384.63 364.02 383.82 361.71 382.68 C 361.65 381.95 361.59 381.23 361.54 380.51 C 359.52 380.62 357.34 380.39 355.54 381.50 C 352.75 383.25 349.33 383.09 346.33 384.26 C 344.19 385.06 342.12 386.00 340.01 386.87 C 339.39 386.52 338.17 385.82 337.56 385.47 Z" />
</g>
<g id="#ac53fcff">
<path fill="#ac53fc" opacity="1.00" d=" M 408.92 366.65 C 430.82 366.23 452.67 370.53 472.96 378.69 C 472.26 379.66 471.55 380.63 470.86 381.60 C 473.10 382.26 475.41 382.61 477.74 382.75 C 477.34 383.70 476.95 384.66 476.56 385.62 C 480.71 386.30 484.66 387.99 487.43 391.27 C 486.76 392.22 486.09 393.17 485.43 394.13 C 486.17 394.96 486.92 395.79 487.67 396.63 C 486.65 396.92 485.64 397.22 484.63 397.52 C 483.97 398.89 483.31 400.25 482.65 401.63 C 480.01 401.47 477.35 401.46 474.71 401.32 C 459.68 394.87 443.96 389.03 427.46 388.13 L 427.61 387.82 C 428.05 386.66 429.06 385.42 428.41 384.14 C 427.21 383.01 425.69 382.30 424.31 381.44 C 425.64 379.94 427.04 378.50 428.54 377.15 C 424.29 375.31 418.85 375.16 415.82 371.27 C 411.56 370.64 407.27 370.23 403.02 369.49 C 405.61 369.16 408.21 368.93 410.82 368.74 C 410.18 368.04 409.55 367.35 408.92 366.65 Z" />
</g>
<g id="#29defdff">
<path fill="#29defd" opacity="1.00" d=" M 788.41 376.78 C 816.40 366.73 847.13 363.84 876.33 369.93 L 876.42 370.14 C 877.35 374.35 882.54 372.90 885.59 374.14 C 882.39 375.98 879.11 374.48 875.99 373.39 C 874.50 372.77 874.06 374.78 874.19 375.83 C 874.50 378.38 875.63 380.72 876.49 383.13 C 876.92 383.38 877.79 383.88 878.23 384.13 C 874.54 385.28 870.90 386.78 867.03 387.11 C 861.49 386.92 855.69 384.42 850.41 387.22 C 834.93 386.88 819.28 388.32 804.38 392.82 C 803.70 391.74 803.66 389.83 802.00 389.83 C 799.97 389.95 798.13 390.88 796.27 391.58 C 796.98 387.11 795.58 382.75 794.48 378.47 C 792.44 377.93 790.42 377.37 788.41 376.78 Z" />
</g>
<g id="#9563fcff">
<path fill="#9563fc" opacity="1.00" d=" M 563.00 369.45 C 575.72 380.54 587.25 392.88 599.27 404.70 C 613.51 419.49 627.89 434.14 642.30 448.76 C 641.39 449.36 640.49 449.95 639.61 450.56 C 638.84 452.91 638.59 455.83 636.27 457.26 C 633.91 458.77 631.01 459.51 628.23 459.35 C 625.62 457.74 624.04 453.96 620.46 454.65 C 607.82 442.28 595.74 429.34 583.21 416.85 C 571.13 404.61 559.31 392.08 546.35 380.76 C 550.79 380.28 553.08 384.91 556.73 386.51 C 560.10 387.27 562.66 384.26 565.66 383.27 C 564.48 381.45 563.31 379.63 562.16 377.81 C 563.33 376.96 564.51 376.12 565.69 375.29 C 564.65 374.13 563.60 372.99 562.57 371.84 C 562.68 371.24 562.89 370.05 563.00 369.45 Z" />
</g>
<g id="#22edfdff">
<path fill="#22edfd" opacity="1.00" d=" M 885.59 374.14 C 882.54 372.90 877.35 374.35 876.42 370.14 C 906.82 375.91 935.03 391.47 957.40 412.69 C 975.66 430.30 990.27 451.79 999.33 475.52 C 1014.23 512.66 1014.60 554.59 1003.91 592.88 C 1002.91 595.88 1002.70 599.46 1000.10 601.61 C 995.56 597.48 990.33 594.26 985.53 590.51 C 984.42 588.51 985.94 586.02 986.28 583.89 C 991.02 565.34 992.54 546.05 991.55 526.95 C 989.07 496.68 977.45 467.21 958.57 443.43 C 939.08 418.65 911.55 400.18 881.04 392.10 C 871.05 389.30 860.72 388.03 850.41 387.22 C 855.69 384.42 861.49 386.92 867.03 387.11 C 870.90 386.78 874.54 385.28 878.23 384.13 C 877.79 383.88 876.92 383.38 876.49 383.13 C 875.63 380.72 874.50 378.38 874.19 375.83 C 874.06 374.78 874.50 372.77 875.99 373.39 C 879.11 374.48 882.39 375.98 885.59 374.14 Z" />
</g>
<g id="#31d5fdff">
<path fill="#31d5fd" opacity="1.00" d=" M 771.30 383.99 C 776.83 381.36 782.43 378.89 788.16 376.71 L 788.41 376.78 C 790.42 377.37 792.44 377.93 794.48 378.47 C 795.58 382.75 796.98 387.11 796.27 391.58 C 798.13 390.88 799.97 389.95 802.00 389.83 C 803.66 389.83 803.70 391.74 804.38 392.82 C 793.28 395.96 782.71 400.60 772.42 405.76 C 772.62 402.43 776.45 401.95 778.80 400.63 C 777.47 399.04 774.13 397.99 775.06 395.46 C 773.01 393.62 771.22 391.46 770.91 388.63 C 772.60 388.01 774.31 387.40 776.01 386.79 C 774.43 385.85 772.86 384.92 771.30 383.99 Z" />
</g>
<g id="#a15bfcff">
<path fill="#a15bfc" opacity="1.00" d=" M 470.86 381.60 C 471.55 380.63 472.26 379.66 472.96 378.69 C 491.72 386.39 509.12 397.38 524.11 411.01 C 538.67 425.11 552.76 439.68 567.14 453.96 C 565.24 456.22 562.52 457.37 559.88 458.49 C 561.48 460.39 563.06 462.29 564.64 464.21 C 562.72 466.27 561.47 468.78 561.14 471.59 C 560.19 472.15 559.25 472.72 558.32 473.29 C 543.51 458.58 529.11 443.47 514.16 428.91 C 502.53 417.74 488.96 408.78 474.71 401.32 C 477.35 401.46 480.01 401.47 482.65 401.63 C 483.31 400.25 483.97 398.89 484.63 397.52 C 485.64 397.22 486.65 396.92 487.67 396.63 C 486.92 395.79 486.17 394.96 485.43 394.13 C 486.09 393.17 486.76 392.22 487.43 391.27 C 484.66 387.99 480.71 386.30 476.56 385.62 C 476.95 384.66 477.34 383.70 477.74 382.75 C 475.41 382.61 473.10 382.26 470.86 381.60 Z" />
</g>
<g id="#bf48fcff">
<path fill="#bf48fc" opacity="1.00" d=" M 355.54 381.50 C 357.34 380.39 359.52 380.62 361.54 380.51 C 361.59 381.23 361.65 381.95 361.71 382.68 C 364.02 383.82 366.50 384.63 369.11 384.69 C 368.25 385.64 367.41 386.61 366.57 387.58 C 366.17 387.29 365.35 386.71 364.94 386.41 C 364.77 387.46 364.61 388.51 364.45 389.56 C 367.51 390.94 370.62 392.27 373.92 392.98 C 354.82 398.67 336.52 407.49 320.84 419.88 C 318.39 419.33 315.92 418.50 313.37 418.63 C 311.05 419.38 309.65 421.89 307.25 422.49 C 304.98 421.59 302.80 420.47 300.46 419.78 C 300.19 421.48 299.94 423.18 299.68 424.88 C 298.16 424.11 296.64 423.33 295.13 422.56 C 295.05 423.07 294.88 424.11 294.80 424.63 C 293.22 423.71 291.65 422.77 290.09 421.84 C 303.33 406.77 319.63 394.46 337.56 385.47 C 338.17 385.82 339.39 386.52 340.01 386.87 C 342.12 386.00 344.19 385.06 346.33 384.26 C 349.33 383.09 352.75 383.25 355.54 381.50 Z" />
</g>
<g id="#37ccfdff">
<path fill="#37ccfd" opacity="1.00" d=" M 744.89 400.03 C 753.18 393.89 762.06 388.56 771.30 383.99 C 772.86 384.92 774.43 385.85 776.01 386.79 C 774.31 387.40 772.60 388.01 770.91 388.63 C 771.22 391.46 773.01 393.62 775.06 395.46 C 774.13 397.99 777.47 399.04 778.80 400.63 C 776.45 401.95 772.62 402.43 772.42 405.76 L 772.33 406.05 C 766.43 409.14 761.10 413.14 755.56 416.79 C 756.14 415.10 756.84 413.46 757.59 411.85 C 755.82 412.83 754.06 413.80 752.29 414.76 C 752.09 413.46 751.91 412.16 751.73 410.86 C 750.40 410.36 748.86 410.18 747.78 409.22 C 746.69 406.26 746.21 403.10 744.95 400.19 L 744.89 400.03 Z" />
</g>
<g id="#4ab9fdff">
<path fill="#4ab9fd" opacity="1.00" d=" M 675.99 385.34 L 676.21 385.35 C 679.06 385.64 681.94 385.55 684.82 385.62 C 684.25 386.83 683.69 388.05 683.14 389.26 C 685.16 389.67 687.18 390.16 689.17 390.74 C 689.36 391.84 689.56 392.95 689.77 394.06 C 691.10 392.90 692.41 391.71 693.86 390.69 C 695.02 389.51 696.09 391.62 697.08 392.02 C 684.04 405.32 670.98 418.62 658.06 432.05 C 656.86 433.31 655.54 434.44 654.19 435.53 C 650.48 432.00 647.11 428.12 643.41 424.59 C 642.30 423.44 640.35 421.71 642.08 420.16 C 653.15 408.34 664.51 396.77 675.99 385.34 Z" />
</g>
<g id="#3ec5fdff">
<path fill="#3ec5fd" opacity="1.00" d=" M 717.24 425.26 C 725.88 416.29 734.71 407.34 744.95 400.19 C 746.21 403.10 746.69 406.26 747.78 409.22 C 748.86 410.18 750.40 410.36 751.73 410.86 C 751.91 412.16 752.09 413.46 752.29 414.76 C 754.06 413.80 755.82 412.83 757.59 411.85 C 756.84 413.46 756.14 415.10 755.56 416.79 L 755.49 416.95 C 747.19 423.15 739.80 430.39 732.53 437.73 C 733.20 433.10 738.03 430.90 740.26 427.09 C 737.21 428.63 734.77 431.06 731.96 432.94 C 730.09 432.48 729.19 430.46 727.56 429.55 C 724.87 428.00 722.13 426.05 718.87 426.38 C 718.47 426.10 717.65 425.54 717.24 425.26 Z" />
</g>
<g id="#5fa1fcff">
<path fill="#5fa1fc" opacity="1.00" d=" M 415.50 410.51 C 418.30 407.83 422.50 408.62 426.00 408.83 C 430.96 409.66 436.17 409.73 440.85 411.74 C 425.54 425.89 410.23 440.08 396.10 455.43 C 394.18 453.49 392.47 450.94 389.62 450.34 C 385.58 449.33 381.37 449.52 377.28 448.83 C 389.38 435.44 402.15 422.65 415.50 410.51 Z" />
</g>
<g id="#25defdff">
<path fill="#25defd" opacity="1.00" d=" M 816.20 411.83 C 818.28 410.42 820.84 410.27 823.23 409.80 C 828.41 409.06 833.66 408.08 838.91 408.72 C 841.88 408.87 843.73 411.49 845.88 413.20 C 862.49 427.93 878.38 443.54 892.39 460.79 C 890.78 461.28 889.17 461.78 887.58 462.28 C 889.50 466.32 889.04 471.05 891.34 474.95 C 889.59 477.54 890.46 480.68 889.35 483.44 C 885.47 480.36 885.33 474.53 880.93 472.02 C 879.79 471.06 878.31 470.84 876.89 470.83 C 858.66 449.20 837.69 430.15 816.20 411.83 Z" />
</g>
<g id="#c643fcff">
<path fill="#c643fc" opacity="1.00" d=" M 307.25 422.49 C 309.65 421.89 311.05 419.38 313.37 418.63 C 315.92 418.50 318.39 419.33 320.84 419.88 C 289.13 445.02 268.89 483.60 265.07 523.79 C 263.04 546.65 265.23 570.00 272.28 591.88 C 280.05 615.87 294.18 637.44 311.44 655.67 C 311.36 663.08 311.35 670.49 311.31 677.90 C 310.78 678.28 309.71 679.04 309.18 679.42 C 300.71 672.78 293.58 664.63 286.66 656.44 C 264.49 629.70 250.05 596.52 246.34 561.93 C 244.09 540.27 244.55 518.10 250.05 496.93 C 257.09 469.19 270.50 442.85 289.99 421.78 L 290.09 421.84 C 291.65 422.77 293.22 423.71 294.80 424.63 C 294.88 424.11 295.05 423.07 295.13 422.56 C 296.64 423.33 298.16 424.11 299.68 424.88 C 299.94 423.18 300.19 421.48 300.46 419.78 C 302.80 420.47 304.98 421.59 307.25 422.49 Z" />
</g>
<g id="#47bafdff">
<path fill="#47bafd" opacity="1.00" d=" M 683.32 460.32 C 694.51 448.53 705.81 436.82 717.24 425.26 C 717.65 425.54 718.47 426.10 718.87 426.38 C 722.13 426.05 724.87 428.00 727.56 429.55 C 729.19 430.46 730.09 432.48 731.96 432.94 C 734.77 431.06 737.21 428.63 740.26 427.09 C 738.03 430.90 733.20 433.10 732.53 437.73 L 732.47 437.97 C 721.28 449.92 709.48 461.28 698.42 473.36 C 697.11 475.08 694.70 476.92 692.59 475.37 C 689.23 472.05 686.21 468.38 682.88 465.03 C 681.44 463.75 682.01 461.47 683.32 460.32 Z" />
</g>
<g id="#6a93fcff">
<path fill="#6a93fc" opacity="1.00" d=" M 342.39 494.71 C 352.51 478.36 364.34 463.04 377.28 448.83 C 381.37 449.52 385.58 449.33 389.62 450.34 C 392.47 450.94 394.18 453.49 396.10 455.43 C 383.57 468.97 371.89 483.33 361.69 498.72 C 359.93 501.37 358.30 504.12 356.31 506.61 C 356.78 504.09 357.67 501.66 359.10 499.52 C 355.97 500.86 352.87 499.06 349.95 498.05 C 349.45 495.15 348.46 492.36 347.19 489.72 C 346.60 491.34 346.02 492.97 345.45 494.61 C 344.68 494.64 343.15 494.68 342.39 494.71 Z" />
</g>
<g id="#8c68fcff">
<path fill="#8c68fc" opacity="1.00" d=" M 642.30 448.76 C 655.02 461.83 667.65 474.98 680.55 487.87 C 678.13 488.48 676.04 489.87 674.81 492.07 C 673.41 494.66 670.29 494.94 667.76 495.67 C 666.54 496.91 665.34 498.18 664.15 499.44 C 649.65 484.45 634.74 469.85 620.46 454.65 C 624.04 453.96 625.62 457.74 628.23 459.35 C 631.01 459.51 633.91 458.77 636.27 457.26 C 638.59 455.83 638.84 452.91 639.61 450.56 C 640.49 449.95 641.39 449.36 642.30 448.76 Z" />
</g>
<g id="#619afcff">
<path fill="#619afc" opacity="1.00" d=" M 772.59 466.35 C 779.96 459.10 789.66 454.17 799.99 453.07 C 815.12 451.23 831.11 457.38 840.89 469.12 C 843.38 471.64 843.17 476.19 840.37 478.41 C 837.82 480.62 835.73 484.27 831.98 484.29 C 827.41 484.08 825.47 479.20 821.87 477.11 C 812.57 470.16 799.27 470.06 789.64 476.42 C 789.62 475.93 789.58 474.94 789.56 474.45 C 786.72 473.83 783.75 473.31 781.25 471.76 C 779.32 470.64 779.60 468.14 779.16 466.26 C 776.97 466.26 774.77 466.29 772.59 466.35 Z" />
</g>
<g id="#965ffcff">
<path fill="#965ffc" opacity="1.00" d=" M 567.14 453.96 C 590.28 477.41 613.62 500.68 636.53 524.35 C 638.71 526.67 641.53 528.75 642.32 532.02 C 644.82 539.86 634.05 548.03 627.36 542.72 C 622.87 538.86 619.03 534.30 614.65 530.32 C 595.93 511.25 577.13 492.26 558.32 473.29 C 559.25 472.72 560.19 472.15 561.14 471.59 C 561.47 468.78 562.72 466.27 564.64 464.21 C 563.06 462.29 561.48 460.39 559.88 458.49 C 562.52 457.37 565.24 456.22 567.14 453.96 Z" />
</g>
<g id="#21e3fcff">
<path fill="#21e3fc" opacity="1.00" d=" M 887.58 462.28 C 889.17 461.78 890.78 461.28 892.39 460.79 C 924.05 499.44 946.09 545.82 956.54 594.64 C 958.67 595.79 960.82 596.95 962.96 598.11 C 962.12 599.22 961.29 600.33 960.47 601.45 C 961.91 603.30 964.43 605.19 963.79 607.84 C 962.27 610.53 960.27 612.89 958.62 615.48 C 957.53 614.16 956.47 612.83 955.44 611.48 C 953.75 611.95 952.07 612.43 950.41 612.92 C 947.40 611.23 943.87 610.06 941.72 607.21 C 938.82 604.04 939.28 599.45 938.12 595.58 C 927.40 550.14 906.63 506.89 876.89 470.83 C 878.31 470.84 879.79 471.06 880.93 472.02 C 885.33 474.53 885.47 480.36 889.35 483.44 C 890.46 480.68 889.59 477.54 891.34 474.95 C 889.04 471.05 889.50 466.32 887.58 462.28 Z" />
</g>
<g id="#6986fcff">
<path fill="#6986fc" opacity="1.00" d=" M 772.59 466.35 C 774.77 466.29 776.97 466.26 779.16 466.26 C 779.60 468.14 779.32 470.64 781.25 471.76 C 783.75 473.31 786.72 473.83 789.56 474.45 C 789.58 474.94 789.62 475.93 789.64 476.42 C 787.03 478.45 784.60 480.70 782.54 483.28 C 779.39 481.79 776.50 479.46 772.93 479.16 C 770.03 478.87 767.19 478.22 764.59 476.90 C 766.91 473.13 769.48 469.51 772.59 466.35 Z" />
</g>
<g id="#7684fcff">
<path fill="#7684fc" opacity="1.00" d=" M 759.21 491.78 C 759.86 486.48 762.01 481.52 764.59 476.90 C 767.19 478.22 770.03 478.87 772.93 479.16 C 776.50 479.46 779.39 481.79 782.54 483.28 C 780.51 486.20 779.12 489.48 777.57 492.66 C 777.27 490.06 777.90 487.52 778.84 485.12 C 776.86 486.43 774.94 487.89 772.69 488.68 C 769.25 489.03 765.80 488.45 762.36 488.63 C 761.31 489.68 760.26 490.73 759.21 491.78 Z" />
</g>
<g id="#7b75fbff">
<path fill="#7b75fb" opacity="1.00" d=" M 772.69 488.68 C 774.94 487.89 776.86 486.43 778.84 485.12 C 777.90 487.52 777.27 490.06 777.57 492.66 C 776.81 498.43 776.01 504.29 777.55 510.05 C 773.33 506.05 766.94 507.15 761.73 507.90 C 761.26 506.65 760.81 505.39 760.36 504.15 C 760.05 506.52 759.68 508.89 759.33 511.27 C 757.36 505.10 758.35 498.44 758.88 492.11 L 759.21 491.78 C 760.26 490.73 761.31 489.68 762.36 488.63 C 765.80 488.45 769.25 489.03 772.69 488.68 Z" />
</g>
<g id="#8566fbff">
<path fill="#8566fb" opacity="1.00" d=" M 674.81 492.07 C 676.04 489.87 678.13 488.48 680.55 487.87 C 694.12 502.18 708.17 516.05 721.81 530.30 C 732.37 540.69 741.70 552.59 754.19 560.81 C 765.27 568.42 777.69 574.52 791.04 576.73 C 787.28 578.53 788.50 583.33 786.35 586.24 C 783.78 587.90 780.56 588.33 778.13 590.24 C 777.23 591.21 778.07 592.59 778.16 593.71 C 759.61 588.76 742.52 578.65 728.74 565.34 C 716.17 552.91 704.14 539.94 691.57 527.51 C 682.49 518.09 673.17 508.92 664.15 499.44 C 665.34 498.18 666.54 496.91 667.76 495.67 C 670.29 494.94 673.41 494.66 674.81 492.07 Z" />
</g>
<g id="#7987fcff">
<path fill="#7987fc" opacity="1.00" d=" M 347.19 489.72 C 348.46 492.36 349.45 495.15 349.95 498.05 C 352.87 499.06 355.97 500.86 359.10 499.52 C 357.67 501.66 356.78 504.09 356.31 506.61 C 353.90 511.44 350.57 515.77 348.08 520.57 L 347.90 520.56 C 345.07 520.26 342.26 520.74 339.53 521.42 C 338.93 520.42 338.33 519.42 337.74 518.42 C 336.45 518.14 335.17 517.87 333.90 517.60 C 333.51 517.02 333.14 516.44 332.76 515.88 C 331.28 518.08 329.87 520.34 328.54 522.65 C 328.03 522.05 327.54 521.47 327.04 520.89 C 331.61 511.91 336.93 503.34 342.12 494.71 L 342.39 494.71 C 343.15 494.68 344.68 494.64 345.45 494.61 C 346.02 492.97 346.60 491.34 347.19 489.72 Z" />
</g>
<g id="#8863fbff">
<path fill="#8863fb" opacity="1.00" d=" M 760.36 504.15 C 760.81 505.39 761.26 506.65 761.73 507.90 C 766.94 507.15 773.33 506.05 777.55 510.05 C 780.04 517.70 785.07 524.83 792.46 528.40 C 803.38 534.30 818.05 531.54 826.18 522.20 C 828.28 519.56 832.22 517.42 835.39 519.57 C 839.04 522.18 844.05 525.77 842.31 530.99 C 835.32 541.38 823.46 548.37 811.02 549.73 C 803.03 551.01 794.81 549.42 787.35 546.48 C 772.85 540.59 761.78 526.69 759.33 511.27 C 759.68 508.89 760.05 506.52 760.36 504.15 Z" />
</g>
<g id="#2ff8fdff">
<path fill="#2ff8fd" opacity="1.00" d=" M 434.56 527.02 C 434.63 514.49 446.55 503.74 459.00 504.70 C 464.93 505.27 470.60 508.09 474.58 512.53 C 500.79 539.61 527.26 566.43 553.62 593.37 C 573.34 613.35 593.16 633.24 612.67 653.41 C 620.67 662.69 620.11 677.70 611.64 686.49 C 586.30 713.19 560.78 739.71 535.40 766.36 C 517.34 784.65 499.85 803.49 481.57 821.56 C 479.01 824.04 476.61 826.73 473.67 828.78 C 465.94 833.79 455.35 834.37 447.34 829.69 C 442.50 826.98 438.70 822.38 437.16 817.05 C 435.25 810.58 436.83 803.28 440.97 798.01 C 482.53 755.18 524.16 712.38 565.48 669.31 C 525.29 628.20 484.67 587.52 444.14 546.77 C 438.48 541.84 434.00 534.79 434.56 527.02 Z" />
</g>
<g id="#7f81fcff">
<path fill="#7f81fc" opacity="1.00" d=" M 328.54 522.65 C 329.87 520.34 331.28 518.08 332.76 515.88 C 333.14 516.44 333.51 517.02 333.90 517.60 C 335.17 517.87 336.45 518.14 337.74 518.42 C 338.33 519.42 338.93 520.42 339.53 521.42 C 342.26 520.74 345.07 520.26 347.90 520.56 C 342.38 530.74 337.16 541.07 332.54 551.69 L 332.55 550.92 C 332.59 549.11 332.71 547.30 332.93 545.51 C 328.61 549.25 321.09 545.64 321.22 539.95 C 319.89 541.29 318.54 542.62 317.17 543.92 C 317.17 543.40 317.17 542.37 317.17 541.86 C 319.93 534.64 323.50 527.75 327.04 520.89 C 327.54 521.47 328.03 522.05 328.54 522.65 Z" />
</g>
<g id="#8677fcff">
<path fill="#8677fc" opacity="1.00" d=" M 321.22 539.95 C 321.09 545.64 328.61 549.25 332.93 545.51 C 332.71 547.30 332.59 549.11 332.55 550.92 C 330.51 558.42 326.87 565.48 324.78 573.02 L 324.42 572.51 C 324.19 572.20 323.75 571.58 323.53 571.27 C 321.18 575.00 316.71 572.75 313.27 572.43 C 310.71 572.19 310.27 569.24 309.40 567.33 C 309.10 568.29 308.78 569.24 308.45 570.20 C 307.95 570.52 306.95 571.16 306.45 571.48 C 308.99 561.29 312.74 551.37 317.17 541.86 C 317.17 542.37 317.17 543.40 317.17 543.92 C 318.54 542.62 319.89 541.29 321.22 539.95 Z" />
</g>
<g id="#7d6bfbff">
<path fill="#7d6bfb" opacity="1.00" d=" M 868.48 544.33 C 870.38 542.35 874.13 541.85 876.09 543.98 C 878.25 546.11 880.69 548.04 882.39 550.59 C 883.18 553.32 883.17 556.86 880.93 558.95 C 871.96 568.04 862.89 577.32 851.74 583.75 C 830.14 597.54 802.64 600.67 778.16 593.71 C 778.07 592.59 777.23 591.21 778.13 590.24 C 780.56 588.33 783.78 587.90 786.35 586.24 C 788.50 583.33 787.28 578.53 791.04 576.73 C 812.08 581.03 834.38 574.31 851.00 561.09 C 857.47 556.21 862.72 549.99 868.48 544.33 Z" />
</g>
<g id="#8e6efcff">
<path fill="#8e6efc" opacity="1.00" d=" M 309.40 567.33 C 310.27 569.24 310.71 572.19 313.27 572.43 C 316.71 572.75 321.18 575.00 323.53 571.27 C 323.75 571.58 324.19 572.20 324.42 572.51 L 324.46 573.77 C 318.65 591.48 315.55 609.90 312.42 628.23 C 307.19 623.31 303.92 616.77 300.27 610.68 C 299.60 609.18 298.27 607.77 298.54 606.04 C 299.82 595.37 302.45 584.91 305.23 574.55 C 305.62 573.53 305.63 572.26 306.45 571.48 C 306.95 571.16 307.95 570.52 308.45 570.20 C 308.78 569.24 309.10 568.29 309.40 567.33 Z" />
</g>
<g id="#21effdff">
<path fill="#21effd" opacity="1.00" d=" M 962.96 598.11 C 996.05 616.70 1023.69 644.75 1041.88 678.04 C 1049.95 692.53 1055.92 708.11 1060.44 724.04 C 1067.24 748.67 1068.90 774.50 1066.60 799.89 C 1063.53 845.11 1046.71 889.09 1019.44 925.23 C 1017.86 924.69 1016.30 924.16 1014.75 923.64 C 1015.01 921.74 1015.07 919.82 1014.84 917.92 C 1015.64 917.54 1016.44 917.17 1017.27 916.82 C 1013.02 914.68 1007.99 915.57 1003.91 917.62 C 1000.98 919.10 999.89 923.26 996.32 923.47 C 1002.07 915.51 1008.65 908.11 1013.45 899.48 C 1033.79 867.39 1046.36 830.14 1047.91 792.07 C 1050.94 747.67 1037.89 702.33 1011.49 666.48 C 995.58 644.20 973.99 626.57 950.41 612.92 C 952.07 612.43 953.75 611.95 955.44 611.48 C 956.47 612.83 957.53 614.16 958.62 615.48 C 960.27 612.89 962.27 610.53 963.79 607.84 C 964.43 605.19 961.91 603.30 960.47 601.45 C 961.29 600.33 962.12 599.22 962.96 598.11 Z" />
</g>
<g id="#21ebfdff">
<path fill="#21ebfd" opacity="1.00" d=" M 944.76 657.98 C 944.39 656.31 946.18 655.48 947.04 654.41 C 960.85 664.22 972.51 676.85 982.45 690.50 C 995.27 708.45 1003.68 729.37 1007.89 750.98 C 1016.19 795.30 1006.05 842.35 981.83 880.21 C 980.61 876.29 984.72 873.59 984.66 869.76 C 983.34 870.94 982.13 872.25 980.72 873.32 C 978.10 872.31 975.51 871.12 972.65 871.17 C 972.84 870.46 973.04 869.75 973.27 869.07 C 972.18 868.39 971.11 867.71 970.06 867.05 C 967.12 870.29 965.80 874.62 962.85 877.85 C 960.21 880.87 957.80 884.09 955.36 887.27 C 954.80 887.24 953.68 887.19 953.12 887.17 C 977.77 857.30 991.64 818.71 991.46 779.97 C 991.13 741.97 974.59 704.10 946.07 678.83 C 944.95 677.89 944.68 676.41 944.76 675.04 C 944.71 669.35 944.79 663.67 944.76 657.98 Z" />
</g>
<g id="#d03dfcff">
<path fill="#d03dfc" opacity="1.00" d=" M 205.57 696.60 C 207.80 691.71 209.40 686.42 212.75 682.14 C 216.72 687.54 220.93 692.78 224.86 698.20 C 224.32 702.57 221.83 706.41 220.58 710.60 C 203.45 756.44 204.34 808.22 220.84 854.10 C 231.59 885.05 249.74 913.18 272.59 936.57 C 269.65 935.65 267.72 933.00 264.93 931.77 C 265.62 933.91 266.63 936.01 268.46 937.43 C 271.58 939.97 274.35 942.87 277.09 945.81 C 278.87 947.76 281.79 948.53 283.08 950.92 C 283.27 953.06 282.18 955.10 281.57 957.13 C 283.57 956.44 285.55 955.53 287.69 955.39 C 292.11 957.47 296.06 961.40 296.70 966.44 C 296.95 969.43 299.16 971.51 301.18 973.47 C 300.23 974.67 299.28 975.88 298.33 977.09 C 295.47 974.49 292.47 971.78 288.52 971.11 C 287.94 969.82 287.46 968.49 286.68 967.32 C 284.98 966.43 282.92 966.74 281.21 965.90 C 279.15 964.17 278.19 961.47 276.17 959.73 C 274.25 958.52 272.76 960.33 271.42 961.45 C 233.57 929.16 206.29 884.56 195.19 836.02 C 189.33 811.82 188.17 786.69 189.87 761.91 C 191.91 739.54 196.54 717.24 205.57 696.60 Z" />
</g>
<g id="#c048fcff">
<path fill="#c048fc" opacity="1.00" d=" M 264.61 698.25 C 265.26 695.73 265.29 692.93 267.00 690.81 C 276.20 700.40 285.86 709.60 296.48 717.61 C 295.76 718.31 295.03 719.02 294.31 719.75 C 294.77 721.40 295.22 723.05 295.67 724.72 C 296.97 724.89 298.27 725.06 299.57 725.26 C 298.30 727.36 297.36 729.92 295.11 731.20 C 292.69 732.53 290.10 733.52 287.62 734.73 C 277.22 726.97 267.28 718.53 258.35 709.12 C 260.93 710.19 263.77 710.78 266.49 709.82 C 266.67 707.28 266.98 704.76 267.37 702.26 C 266.45 700.92 265.52 699.59 264.61 698.25 Z" />
</g>
<g id="#2bd2fcff">
<path fill="#2bd2fc" opacity="1.00" d=" M 943.30 707.92 C 943.42 706.64 943.69 705.36 944.60 704.40 C 949.60 710.25 954.08 716.53 958.03 723.14 C 959.36 725.20 958.42 727.76 958.17 730.01 C 954.33 748.99 949.28 767.85 941.79 785.74 C 941.68 783.76 941.51 781.79 941.36 779.82 C 938.35 780.79 938.21 783.92 937.92 786.57 C 937.37 784.62 936.81 782.69 936.25 780.76 C 933.55 779.81 930.90 778.73 928.32 777.51 C 927.46 779.13 926.60 780.76 925.75 782.40 C 925.29 782.37 924.38 782.32 923.92 782.29 C 933.12 758.33 940.23 733.44 943.30 707.92 Z" />
</g>
<g id="#b351fcff">
<path fill="#b351fc" opacity="1.00" d=" M 296.48 717.61 C 302.02 721.74 307.57 725.88 313.46 729.51 C 316.00 730.97 317.69 733.49 318.26 736.35 C 317.78 736.36 316.83 736.39 316.36 736.40 C 316.01 735.80 315.67 735.21 315.33 734.63 C 311.99 736.02 308.32 737.08 305.75 739.78 C 304.01 741.69 302.85 744.03 301.77 746.36 C 301.31 745.19 301.16 743.71 299.91 743.08 C 295.74 740.41 291.41 737.95 287.62 734.73 C 290.10 733.52 292.69 732.53 295.11 731.20 C 297.36 729.92 298.30 727.36 299.57 725.26 C 298.27 725.06 296.97 724.89 295.67 724.72 C 295.22 723.05 294.77 721.40 294.31 719.75 C 295.03 719.02 295.76 718.31 296.48 717.61 Z" />
</g>
<g id="#c842fcff">
<path fill="#c842fc" opacity="1.00" d=" M 253.96 730.73 C 259.16 734.70 263.97 739.16 269.21 743.10 L 269.35 743.92 C 259.22 784.46 266.49 828.58 287.49 864.54 C 302.38 890.54 324.91 912.03 351.46 925.89 C 350.21 926.47 348.97 927.07 347.73 927.67 C 347.33 929.31 346.94 930.96 346.54 932.62 C 349.34 932.94 352.12 933.76 354.14 935.84 C 353.19 936.40 352.23 936.97 351.28 937.55 C 352.49 938.05 353.71 938.54 354.93 939.04 C 354.77 939.39 354.44 940.08 354.28 940.43 C 351.41 940.83 348.50 941.62 345.60 941.21 C 342.79 940.78 341.45 938.05 339.96 935.98 C 338.88 937.19 337.80 938.39 336.73 939.62 C 307.07 922.56 282.26 896.97 266.64 866.48 C 247.42 829.58 240.01 785.87 249.56 745.08 C 250.82 740.25 251.55 735.16 253.96 730.73 Z" />
</g>
<g id="#a358fcff">
<path fill="#a358fc" opacity="1.00" d=" M 315.33 734.63 C 315.67 735.21 316.01 735.80 316.36 736.40 C 316.83 736.39 317.78 736.36 318.26 736.35 C 321.47 752.87 327.03 768.84 333.26 784.44 C 348.03 819.82 368.95 852.80 395.75 880.30 C 411.67 896.63 429.45 910.99 447.80 924.49 C 447.35 924.72 446.44 925.19 445.99 925.42 C 437.04 926.30 427.93 927.02 419.00 925.50 C 394.52 905.98 371.95 883.84 353.39 858.55 C 331.52 828.60 315.47 794.60 304.86 759.12 C 303.81 754.88 302.19 750.69 301.77 746.36 C 302.85 744.03 304.01 741.69 305.75 739.78 C 308.32 737.08 311.99 736.02 315.33 734.63 Z" />
</g>
<g id="#35c6fdff">
<path fill="#35c6fd" opacity="1.00" d=" M 928.32 777.51 C 930.90 778.73 933.55 779.81 936.25 780.76 C 936.81 782.69 937.37 784.62 937.92 786.57 C 938.21 783.92 938.35 780.79 941.36 779.82 C 941.51 781.79 941.68 783.76 941.79 785.74 C 934.06 807.95 922.66 828.82 909.81 848.50 L 909.03 848.43 C 906.60 847.82 904.31 848.73 902.16 849.76 C 901.70 848.33 901.25 846.91 900.82 845.51 C 900.53 845.71 899.96 846.13 899.67 846.34 C 898.68 845.28 897.75 844.15 896.60 843.29 C 894.96 842.93 893.28 842.86 891.67 842.42 C 904.66 823.72 915.17 803.37 923.70 782.28 L 923.92 782.29 C 924.38 782.32 925.29 782.37 925.75 782.40 C 926.60 780.76 927.46 779.13 928.32 777.51 Z" />
</g>
<g id="#2ef9fdff">
<path fill="#2ef9fd" opacity="1.00" d=" M 642.42 793.54 C 701.61 793.26 760.83 793.52 820.04 793.40 C 825.40 792.94 830.26 797.71 830.27 803.01 C 830.39 809.68 830.32 816.35 830.25 823.02 C 830.25 828.27 825.31 832.86 820.08 832.49 C 762.03 832.57 703.98 832.54 645.94 832.53 C 640.85 832.91 635.00 829.42 634.72 823.96 C 634.60 816.98 634.66 810.00 634.66 803.03 C 634.47 798.53 638.14 794.45 642.42 793.54 Z" />
</g>
<g id="#42bbfdff">
<path fill="#42bbfd" opacity="1.00" d=" M 891.67 842.42 C 893.28 842.86 894.96 842.93 896.60 843.29 C 897.75 844.15 898.68 845.28 899.67 846.34 C 899.96 846.13 900.53 845.71 900.82 845.51 C 901.25 846.91 901.70 848.33 902.16 849.76 C 904.31 848.73 906.60 847.82 909.03 848.43 L 909.82 848.51 C 903.54 857.87 896.69 866.85 889.45 875.49 C 886.13 879.20 883.17 883.35 879.37 886.56 C 876.42 886.67 873.58 887.56 870.91 888.78 C 869.06 886.38 867.21 883.63 864.15 882.73 C 862.35 881.75 860.97 883.80 859.52 884.55 C 858.88 884.41 857.60 884.13 856.96 883.98 C 869.78 871.24 881.29 857.22 891.67 842.42 Z" />
</g>
<g id="#2adcfdff">
<path fill="#2adcfd" opacity="1.00" d=" M 970.06 867.05 C 971.11 867.71 972.18 868.39 973.27 869.07 C 973.04 869.75 972.84 870.46 972.65 871.17 C 975.51 871.12 978.10 872.31 980.72 873.32 C 982.13 872.25 983.34 870.94 984.66 869.76 C 984.72 873.59 980.61 876.29 981.83 880.21 C 961.56 912.71 930.39 938.17 894.66 951.91 C 888.38 954.16 882.16 956.72 875.58 957.95 C 875.63 957.57 875.73 956.82 875.79 956.45 C 882.13 954.28 888.49 952.15 894.79 949.83 C 894.15 949.39 893.52 948.95 892.90 948.53 C 892.66 946.61 892.53 944.45 890.61 943.44 C 888.18 942.01 887.39 939.34 886.77 936.79 C 884.85 937.10 883.08 937.86 881.92 939.48 C 878.10 939.49 874.21 941.18 870.47 939.85 C 902.30 930.90 931.80 912.78 952.87 887.15 L 953.12 887.17 C 953.68 887.19 954.80 887.24 955.36 887.27 C 957.80 884.09 960.21 880.87 962.85 877.85 C 965.80 874.62 967.12 870.29 970.06 867.05 Z" />
</g>
<g id="#4dacfcff">
<path fill="#4dacfc" opacity="1.00" d=" M 859.52 884.55 C 860.97 883.80 862.35 881.75 864.15 882.73 C 867.21 883.63 869.06 886.38 870.91 888.78 C 873.58 887.56 876.42 886.67 879.37 886.56 C 866.94 900.99 852.48 913.64 837.47 925.31 C 830.16 927.13 822.44 926.44 815.01 925.81 C 813.16 925.53 811.00 925.92 809.66 924.35 C 825.99 911.58 842.28 898.66 856.96 883.98 C 857.60 884.13 858.88 884.41 859.52 884.55 Z" />
</g>
<g id="#9761fbff">
<path fill="#9761fb" opacity="1.00" d=" M 560.05 889.13 C 562.31 886.88 564.37 883.52 568.03 883.81 C 573.69 883.80 579.36 883.68 585.03 883.74 C 586.77 883.38 587.83 884.77 588.94 885.85 C 573.05 904.33 555.87 922.16 534.95 934.99 C 533.32 934.27 531.68 933.63 530.02 933.05 C 531.46 932.06 532.91 931.07 534.32 930.03 C 532.57 929.14 530.80 929.75 529.13 930.41 C 529.02 929.32 528.92 928.25 528.82 927.18 C 528.17 928.12 527.52 929.06 526.88 930.01 C 524.09 927.74 522.60 924.45 521.13 921.27 C 535.55 912.46 548.63 901.58 560.05 889.13 Z" />
</g>
<g id="#847afcff">
<path fill="#847afc" opacity="1.00" d=" M 637.18 886.14 C 638.81 884.06 641.55 883.75 644.01 883.82 C 649.59 883.81 655.17 883.71 660.76 883.83 C 661.18 884.36 662.04 885.41 662.46 885.94 C 645.78 903.97 630.06 922.93 612.87 940.48 C 613.76 938.19 615.07 936.11 616.74 934.31 C 616.28 934.29 615.37 934.25 614.92 934.23 C 613.22 932.40 610.95 931.48 608.53 931.15 C 607.25 928.22 605.07 925.66 601.81 925.00 C 613.88 912.30 625.30 899.01 637.18 886.14 Z" />
</g>
<g id="#4eb3fdff">
<path fill="#4eb3fd" opacity="1.00" d=" M 684.53 887.56 C 687.49 884.09 693.14 883.06 696.69 886.23 C 705.92 896.36 715.77 906.06 727.07 913.90 C 733.46 918.76 740.56 922.55 747.47 926.59 C 744.75 928.45 741.83 927.38 739.39 925.69 C 737.65 927.40 735.89 929.09 734.12 930.77 C 735.45 933.13 736.51 935.66 736.83 938.39 C 734.92 938.54 733.02 938.70 731.11 938.79 C 716.35 930.73 703.31 919.79 691.46 907.91 C 683.49 916.00 676.28 924.81 668.46 933.06 C 682.33 948.66 699.53 960.96 717.54 971.36 C 723.94 974.86 730.42 978.26 737.18 981.07 L 736.74 981.45 C 735.60 982.41 734.51 983.45 733.44 984.49 C 734.66 987.56 734.39 990.99 735.84 994.01 C 734.49 993.06 733.13 992.14 731.78 991.23 C 730.90 992.32 730.02 993.41 729.15 994.51 C 730.86 994.88 732.59 995.28 734.31 995.68 C 733.40 996.93 732.49 998.19 731.59 999.47 C 698.96 985.24 669.16 964.07 646.00 936.95 C 644.80 935.33 644.88 932.72 646.25 931.22 C 659.17 916.81 671.67 902.02 684.53 887.56 Z" />
</g>
<g id="#29e0fdff">
<path fill="#29e0fd" opacity="1.00" d=" M 1003.91 917.62 C 1007.99 915.57 1013.02 914.68 1017.27 916.82 C 1016.44 917.17 1015.64 917.54 1014.84 917.92 C 1015.07 919.82 1015.01 921.74 1014.75 923.64 C 1016.30 924.16 1017.86 924.69 1019.44 925.23 C 995.95 956.99 964.11 982.38 928.06 998.46 C 927.51 998.21 926.42 997.73 925.87 997.49 C 928.03 996.33 930.26 995.27 932.51 994.28 C 932.20 993.30 931.89 992.33 931.60 991.37 C 932.44 990.87 933.29 990.38 934.16 989.90 C 933.49 988.82 932.83 987.76 932.19 986.71 C 932.30 985.46 932.42 984.22 932.56 983.00 C 931.54 981.55 930.52 980.11 929.50 978.69 C 927.50 979.34 925.42 979.72 923.32 979.50 C 938.39 971.66 953.25 963.15 966.43 952.32 C 977.14 943.71 987.01 934.04 995.90 923.55 L 996.32 923.47 C 999.89 923.26 1000.98 919.10 1003.91 917.62 Z" />
</g>
<g id="#a258fcff">
<path fill="#a258fc" opacity="1.00" d=" M 486.23 937.28 C 498.33 933.05 510.09 927.81 521.13 921.27 C 522.60 924.45 524.09 927.74 526.88 930.01 C 527.52 929.06 528.17 928.12 528.82 927.18 C 528.92 928.25 529.02 929.32 529.13 930.41 C 530.80 929.75 532.57 929.14 534.32 930.03 C 532.91 931.07 531.46 932.06 530.02 933.05 C 531.68 933.63 533.32 934.27 534.95 934.99 C 526.36 940.30 517.45 945.10 508.12 948.99 C 508.25 948.40 508.50 947.22 508.62 946.63 C 506.40 944.30 503.53 942.83 500.94 940.99 C 500.52 939.83 500.36 938.61 500.13 937.42 C 495.49 936.08 490.89 938.68 486.23 937.28 Z" />
</g>
<g id="#9266fbff">
<path fill="#9266fb" opacity="1.00" d=" M 601.81 925.00 C 605.07 925.66 607.25 928.22 608.53 931.15 C 610.95 931.48 613.22 932.40 614.92 934.23 C 615.37 934.25 616.28 934.29 616.74 934.31 C 615.07 936.11 613.76 938.19 612.87 940.48 C 607.31 947.32 600.36 952.95 593.87 958.90 C 583.59 967.58 572.75 975.65 561.19 982.54 C 560.00 980.50 559.13 978.20 557.41 976.54 C 555.95 975.09 553.81 975.61 552.00 975.58 C 550.92 973.99 549.68 972.52 548.37 971.14 C 546.79 972.01 545.21 972.88 543.64 973.75 C 542.99 973.49 541.70 972.95 541.05 972.69 C 563.61 960.05 584.33 944.09 601.81 925.00 Z" />
</g>
<g id="#44c2fdff">
<path fill="#44c2fd" opacity="1.00" d=" M 739.39 925.69 C 741.83 927.38 744.75 928.45 747.47 926.59 L 747.81 926.46 C 765.38 935.34 784.41 941.63 804.01 943.90 C 807.76 944.57 811.61 944.43 815.35 945.26 C 814.15 945.68 812.97 946.15 811.80 946.64 C 820.10 948.19 828.69 945.88 836.89 948.30 C 835.64 949.26 834.33 950.17 833.23 951.31 C 832.21 953.51 832.54 956.04 832.41 958.41 C 831.16 959.07 829.92 959.75 828.69 960.44 C 828.52 961.77 828.34 963.10 828.19 964.46 C 794.36 964.72 760.20 956.27 731.11 938.79 C 733.02 938.70 734.92 938.54 736.83 938.39 C 736.51 935.66 735.45 933.13 734.12 930.77 C 735.89 929.09 737.65 927.40 739.39 925.69 Z" />
</g>
<g id="#bb49fcff">
<path fill="#bb49fc" opacity="1.00" d=" M 351.46 925.89 C 365.11 933.23 379.76 938.68 394.93 941.87 C 403.23 943.81 411.78 944.18 420.18 945.41 C 418.72 945.74 417.28 946.16 415.84 946.59 C 419.15 946.87 422.48 947.05 425.81 947.06 C 424.75 947.83 423.60 948.52 422.73 949.52 C 422.43 951.02 422.55 952.61 422.07 954.09 C 419.79 956.06 417.16 957.59 414.94 959.65 C 415.49 960.33 416.04 961.02 416.60 961.72 C 414.86 962.24 413.13 962.78 411.39 963.27 C 385.19 961.03 359.50 952.80 336.73 939.62 C 337.80 938.39 338.88 937.19 339.96 935.98 C 341.45 938.05 342.79 940.78 345.60 941.21 C 348.50 941.62 351.41 940.83 354.28 940.43 C 354.44 940.08 354.77 939.39 354.93 939.04 C 353.71 938.54 352.49 938.05 351.28 937.55 C 352.23 936.97 353.19 936.40 354.14 935.84 C 352.12 933.76 349.34 932.94 346.54 932.62 C 346.94 930.96 347.33 929.31 347.73 927.67 C 348.97 927.07 350.21 926.47 351.46 925.89 Z" />
</g>
<g id="#c542fcff">
<path fill="#c542fc" opacity="1.00" d=" M 264.93 931.77 C 267.72 933.00 269.65 935.65 272.59 936.57 L 272.80 936.65 C 301.77 965.05 338.57 985.28 378.04 994.60 C 377.09 995.56 376.15 996.55 375.20 997.54 C 376.29 997.86 377.39 998.20 378.50 998.55 C 378.51 999.32 378.53 1000.10 378.55 1000.90 C 379.73 1002.49 380.87 1004.12 381.98 1005.79 C 382.63 1005.32 383.29 1004.86 383.96 1004.42 C 383.93 1005.39 383.91 1006.36 383.90 1007.36 C 382.96 1007.40 382.02 1007.46 381.09 1007.53 C 381.12 1008.02 381.19 1009.00 381.22 1009.48 C 384.39 1010.57 387.68 1011.30 391.05 1011.36 C 393.81 1011.45 394.57 1014.71 395.48 1016.80 C 363.83 1013.23 333.30 1001.99 305.81 986.10 C 293.55 979.07 282.07 970.73 271.42 961.45 C 272.76 960.33 274.25 958.52 276.17 959.73 C 278.19 961.47 279.15 964.17 281.21 965.90 C 282.92 966.74 284.98 966.43 286.68 967.32 C 287.46 968.49 287.94 969.82 288.52 971.11 C 292.47 971.78 295.47 974.49 298.33 977.09 C 299.28 975.88 300.23 974.67 301.18 973.47 C 299.16 971.51 296.95 969.43 296.70 966.44 C 296.06 961.40 292.11 957.47 287.69 955.39 C 285.55 955.53 283.57 956.44 281.57 957.13 C 282.18 955.10 283.27 953.06 283.08 950.92 C 281.79 948.53 278.87 947.76 277.09 945.81 C 274.35 942.87 271.58 939.97 268.46 937.43 C 266.63 936.01 265.62 933.91 264.93 931.77 Z" />
</g>
<g id="#ae51fcff">
<path fill="#ae51fc" opacity="1.00" d=" M 486.23 937.28 C 490.89 938.68 495.49 936.08 500.13 937.42 C 500.36 938.61 500.52 939.83 500.94 940.99 C 503.53 942.83 506.40 944.30 508.62 946.63 C 508.50 947.22 508.25 948.40 508.12 948.99 C 477.76 961.68 444.14 967.12 411.39 963.27 C 413.13 962.78 414.86 962.24 416.60 961.72 C 416.04 961.02 415.49 960.33 414.94 959.65 C 417.16 957.59 419.79 956.06 422.07 954.09 C 422.55 952.61 422.43 951.02 422.73 949.52 C 423.60 948.52 424.75 947.83 425.81 947.06 C 422.48 947.05 419.15 946.87 415.84 946.59 C 417.28 946.16 418.72 945.74 420.18 945.41 C 438.57 945.88 457.13 944.97 475.01 940.34 C 478.82 939.58 482.41 937.88 486.23 937.28 Z" />
</g>
<g id="#34cffdff">
<path fill="#34cffd" opacity="1.00" d=" M 881.92 939.48 C 883.08 937.86 884.85 937.10 886.77 936.79 C 887.39 939.34 888.18 942.01 890.61 943.44 C 892.53 944.45 892.66 946.61 892.90 948.53 C 893.52 948.95 894.15 949.39 894.79 949.83 C 888.49 952.15 882.13 954.28 875.79 956.45 C 875.73 956.82 875.63 957.57 875.58 957.95 C 875.57 958.03 875.55 958.21 875.54 958.30 C 860.05 962.11 844.17 964.61 828.19 964.46 C 828.34 963.10 828.52 961.77 828.69 960.44 C 829.92 959.75 831.16 959.07 832.41 958.41 C 832.54 956.04 832.21 953.51 833.23 951.31 C 834.33 950.17 835.64 949.26 836.89 948.30 C 828.69 945.88 820.10 948.19 811.80 946.64 C 812.97 946.15 814.15 945.68 815.35 945.26 C 833.71 946.18 852.32 944.75 870.06 939.74 L 870.47 939.85 C 874.21 941.18 878.10 939.49 881.92 939.48 Z" />
</g>
<g id="#a15afcff">
<path fill="#a15afc" opacity="1.00" d=" M 548.37 971.14 C 549.68 972.52 550.92 973.99 552.00 975.58 C 553.81 975.61 555.95 975.09 557.41 976.54 C 559.13 978.20 560.00 980.50 561.19 982.54 C 544.80 992.48 527.27 1000.57 509.09 1006.64 C 506.82 1004.19 505.00 1001.30 502.25 999.35 C 502.93 999.09 504.30 998.58 504.98 998.32 C 500.39 997.40 495.01 998.72 491.34 995.14 C 491.92 994.09 492.49 993.03 493.07 992.00 C 509.63 987.27 525.71 980.81 540.87 972.62 L 541.05 972.69 C 541.70 972.95 542.99 973.49 543.64 973.75 C 545.21 972.88 546.79 972.01 548.37 971.14 Z" />
</g>
<g id="#30d5fdff">
<path fill="#30d5fd" opacity="1.00" d=" M 923.32 979.50 C 925.42 979.72 927.50 979.34 929.50 978.69 C 930.52 980.11 931.54 981.55 932.56 983.00 C 932.42 984.22 932.30 985.46 932.19 986.71 C 932.83 987.76 933.49 988.82 934.16 989.90 C 933.29 990.38 932.44 990.87 931.60 991.37 C 931.89 992.33 932.20 993.30 932.51 994.28 C 930.26 995.27 928.03 996.33 925.87 997.49 C 926.42 997.73 927.51 998.21 928.06 998.46 C 913.93 1005.12 899.07 1010.13 883.85 1013.60 C 884.71 1012.47 885.61 1011.38 886.51 1010.29 C 881.75 1010.00 875.03 1007.67 875.57 1001.82 C 875.98 999.14 873.36 997.87 871.67 996.39 C 884.01 994.08 896.05 990.38 907.77 985.89 C 913.05 984.02 918.01 981.20 923.32 979.50 Z" />
</g>
<g id="#47c0fdff">
<path fill="#47c0fd" opacity="1.00" d=" M 733.44 984.49 C 734.51 983.45 735.60 982.41 736.74 981.45 C 741.91 982.61 746.69 985.46 751.80 987.07 C 768.33 992.98 785.55 997.14 803.03 998.94 L 803.23 999.23 C 803.50 999.62 804.05 1000.40 804.33 1000.80 C 806.09 1000.99 807.88 1001.10 809.67 1001.27 C 812.85 1005.10 818.52 1004.50 822.08 1007.87 C 824.60 1009.22 825.31 1012.05 826.73 1014.30 C 833.44 1015.50 840.33 1015.71 847.12 1016.51 C 845.10 1016.71 843.11 1016.93 841.11 1017.15 C 841.59 1017.58 842.55 1018.45 843.02 1018.88 L 843.42 1019.23 C 805.32 1020.72 766.60 1014.98 731.59 999.47 C 732.49 998.19 733.40 996.93 734.31 995.68 C 732.59 995.28 730.86 994.88 729.15 994.51 C 730.02 993.41 730.90 992.32 731.78 991.23 C 733.13 992.14 734.49 993.06 735.84 994.01 C 734.39 990.99 734.66 987.56 733.44 984.49 Z" />
</g>
<g id="#ac51fcff">
<path fill="#ac51fc" opacity="1.00" d=" M 447.85 1000.10 C 463.12 998.78 478.32 996.27 493.07 992.00 C 492.49 993.03 491.92 994.09 491.34 995.14 C 495.01 998.72 500.39 997.40 504.98 998.32 C 504.30 998.58 502.93 999.09 502.25 999.35 C 505.00 1001.30 506.82 1004.19 509.09 1006.64 C 497.88 1010.45 486.38 1013.51 474.69 1015.42 C 473.34 1014.04 472.21 1012.30 470.38 1011.54 C 467.81 1010.97 465.06 1011.63 462.58 1010.59 C 460.13 1009.67 457.58 1009.08 455.00 1008.74 C 453.53 1005.24 451.27 1001.91 447.85 1000.10 Z" />
</g>
<g id="#b84afcff">
<path fill="#b84afc" opacity="1.00" d=" M 378.04 994.60 C 400.87 999.96 424.47 1001.54 447.85 1000.10 C 451.27 1001.91 453.53 1005.24 455.00 1008.74 C 457.58 1009.08 460.13 1009.67 462.58 1010.59 C 465.06 1011.63 467.81 1010.97 470.38 1011.54 C 472.21 1012.30 473.34 1014.04 474.69 1015.42 C 448.61 1020.24 421.80 1020.47 395.54 1016.97 L 395.48 1016.80 C 394.57 1014.71 393.81 1011.45 391.05 1011.36 C 387.68 1011.30 384.39 1010.57 381.22 1009.48 C 381.19 1009.00 381.12 1008.02 381.09 1007.53 C 382.02 1007.46 382.96 1007.40 383.90 1007.36 C 383.91 1006.36 383.93 1005.39 383.96 1004.42 C 383.29 1004.86 382.63 1005.32 381.98 1005.79 C 380.87 1004.12 379.73 1002.49 378.55 1000.90 C 378.53 1000.10 378.51 999.32 378.50 998.55 C 377.39 998.20 376.29 997.86 375.20 997.54 C 376.15 996.55 377.09 995.56 378.04 994.60 Z" />
</g>
<g id="#3acbfdff">
<path fill="#3acbfd" opacity="1.00" d=" M 803.23 999.23 C 826.03 1001.37 849.15 1000.85 871.67 996.39 C 873.36 997.87 875.98 999.14 875.57 1001.82 C 875.03 1007.67 881.75 1010.00 886.51 1010.29 C 885.61 1011.38 884.71 1012.47 883.85 1013.60 C 870.42 1016.45 856.77 1018.68 843.02 1018.88 C 842.55 1018.45 841.59 1017.58 841.11 1017.15 C 843.11 1016.93 845.10 1016.71 847.12 1016.51 C 840.33 1015.71 833.44 1015.50 826.73 1014.30 C 825.31 1012.05 824.60 1009.22 822.08 1007.87 C 818.52 1004.50 812.85 1005.10 809.67 1001.27 C 807.88 1001.10 806.09 1000.99 804.33 1000.80 C 804.05 1000.40 803.50 999.62 803.23 999.23 Z" />
</g>
<g id="#3cc1fdff">
<path fill="#3cc1fd" opacity="1.00" d=" M 580.85 1046.01 C 579.08 1040.36 584.17 1034.17 590.02 1034.67 C 617.69 1034.61 645.37 1034.58 673.04 1034.61 C 681.45 1034.33 689.42 1039.04 694.32 1045.68 C 698.34 1051.37 699.68 1058.60 699.15 1065.46 C 698.34 1063.81 697.46 1062.22 696.58 1060.64 C 692.58 1061.23 688.57 1060.02 684.62 1060.57 C 684.06 1062.30 683.82 1064.12 683.53 1065.93 C 682.98 1064.14 682.41 1062.36 681.81 1060.61 C 680.82 1056.09 676.80 1052.24 671.98 1052.62 C 644.65 1052.71 617.32 1052.53 589.99 1052.66 C 585.91 1052.86 581.80 1050.04 580.85 1046.01 Z" />
</g>
<g id="#ad4ffbff">
<path fill="#ad4ffb" opacity="1.00" d=" M 380.64 1037.66 C 384.09 1034.58 388.93 1036.56 393.02 1036.54 C 396.64 1036.46 399.59 1038.76 402.62 1040.40 C 411.32 1045.29 420.10 1050.07 429.15 1054.28 C 429.05 1056.67 429.02 1059.09 429.07 1061.51 C 430.44 1061.91 431.82 1062.34 433.20 1062.77 C 433.83 1064.22 434.47 1065.68 435.11 1067.15 C 436.76 1067.37 438.41 1067.60 440.06 1067.84 C 438.51 1069.57 436.94 1071.28 435.34 1072.98 C 434.70 1072.21 434.05 1071.44 433.41 1070.71 C 432.61 1071.03 431.81 1071.36 431.02 1071.71 C 430.01 1070.77 429.01 1069.85 428.02 1068.94 C 426.89 1069.77 425.76 1070.60 424.65 1071.46 C 410.23 1064.48 396.15 1056.79 382.29 1048.76 C 378.03 1046.97 377.15 1040.62 380.64 1037.66 Z" />
</g>
<g id="#5d9cfcff">
<path fill="#5d9cfc" opacity="1.00" d=" M 857.29 1038.29 C 861.29 1035.38 866.43 1036.37 871.05 1036.20 C 875.03 1036.08 878.17 1040.17 877.23 1044.01 C 876.60 1048.38 871.73 1049.52 868.66 1051.78 C 847.67 1063.82 826.00 1074.79 803.51 1083.77 C 803.61 1083.43 803.79 1082.74 803.89 1082.40 C 804.83 1081.59 805.83 1080.87 806.83 1080.15 C 805.59 1080.25 804.36 1080.37 803.14 1080.50 C 802.33 1079.41 801.53 1078.34 800.75 1077.28 C 799.65 1078.02 798.57 1078.77 797.50 1079.53 C 797.23 1079.04 796.69 1078.06 796.42 1077.57 C 791.09 1076.39 785.58 1075.76 780.17 1076.86 C 779.70 1076.38 778.75 1075.42 778.28 1074.94 C 796.83 1068.24 814.82 1060.11 832.59 1051.58 C 840.89 1047.27 849.31 1043.17 857.29 1038.29 Z" />
</g>
<g id="#a455fcff">
<path fill="#a455fc" opacity="1.00" d=" M 429.15 1054.28 C 441.15 1059.96 453.23 1065.47 465.58 1070.35 C 464.86 1071.12 464.14 1071.91 463.43 1072.71 C 464.63 1074.48 465.84 1076.25 467.06 1078.02 C 468.56 1077.77 470.07 1077.54 471.59 1077.31 C 471.84 1078.99 472.10 1080.68 472.39 1082.38 C 474.26 1083.46 476.01 1084.79 477.30 1086.55 C 476.00 1086.76 474.70 1086.97 473.40 1087.19 C 473.80 1086.35 474.21 1085.53 474.62 1084.71 C 472.93 1085.40 471.26 1086.14 469.62 1086.94 C 468.63 1086.87 467.63 1086.82 466.64 1086.77 C 466.83 1087.77 467.02 1088.78 467.21 1089.81 C 452.78 1084.27 438.53 1078.25 424.65 1071.46 C 425.76 1070.60 426.89 1069.77 428.02 1068.94 C 429.01 1069.85 430.01 1070.77 431.02 1071.71 C 431.81 1071.36 432.61 1071.03 433.41 1070.71 C 434.05 1071.44 434.70 1072.21 435.34 1072.98 C 436.94 1071.28 438.51 1069.57 440.06 1067.84 C 438.41 1067.60 436.76 1067.37 435.11 1067.15 C 434.47 1065.68 433.83 1064.22 433.20 1062.77 C 431.82 1062.34 430.44 1061.91 429.07 1061.51 C 429.02 1059.09 429.05 1056.67 429.15 1054.28 Z" />
</g>
<g id="#51aefdff">
<path fill="#51aefd" opacity="1.00" d=" M 684.62 1060.57 C 688.57 1060.02 692.58 1061.23 696.58 1060.64 C 697.46 1062.22 698.34 1063.81 699.15 1065.46 C 699.48 1072.97 699.11 1080.50 699.29 1088.03 C 698.37 1087.11 697.49 1086.17 696.49 1085.39 C 692.51 1085.56 688.48 1086.12 684.59 1084.92 C 684.11 1087.51 683.82 1090.15 683.72 1092.81 C 683.06 1092.15 682.40 1091.51 681.75 1090.89 C 681.73 1080.79 681.59 1070.70 681.81 1060.61 C 682.41 1062.36 682.98 1064.14 683.53 1065.93 C 683.82 1064.12 684.06 1062.30 684.62 1060.57 Z" />
</g>
<g id="#4faafcff">
<path fill="#4faafc" opacity="1.00" d=" M 616.04 1079.92 C 612.54 1074.81 616.79 1066.93 622.98 1067.03 C 629.57 1066.85 632.47 1074.01 637.30 1077.32 C 631.65 1079.00 628.53 1084.59 624.61 1088.60 C 621.81 1085.65 618.74 1082.96 616.04 1079.92 Z" />
</g>
<g id="#9c59fbff">
<path fill="#9c59fb" opacity="1.00" d=" M 465.58 1070.35 C 483.98 1077.68 502.83 1083.89 521.99 1088.93 C 524.57 1089.51 525.89 1092.02 527.46 1093.90 C 527.25 1097.65 528.60 1102.38 525.04 1104.99 C 522.26 1107.40 518.58 1105.90 515.46 1105.21 C 499.14 1100.89 483.01 1095.76 467.21 1089.81 C 467.02 1088.78 466.83 1087.77 466.64 1086.77 C 467.63 1086.82 468.63 1086.87 469.62 1086.94 C 471.26 1086.14 472.93 1085.40 474.62 1084.71 C 474.21 1085.53 473.80 1086.35 473.40 1087.19 C 474.70 1086.97 476.00 1086.76 477.30 1086.55 C 476.01 1084.79 474.26 1083.46 472.39 1082.38 C 472.10 1080.68 471.84 1078.99 471.59 1077.31 C 470.07 1077.54 468.56 1077.77 467.06 1078.02 C 465.84 1076.25 464.63 1074.48 463.43 1072.71 C 464.14 1071.91 464.86 1071.12 465.58 1070.35 Z" />
</g>
<g id="#688bfcff">
<path fill="#688bfc" opacity="1.00" d=" M 733.14 1089.04 C 748.40 1085.06 763.48 1080.41 778.28 1074.94 C 778.75 1075.42 779.70 1076.38 780.17 1076.86 C 785.58 1075.76 791.09 1076.39 796.42 1077.57 C 796.69 1078.06 797.23 1079.04 797.50 1079.53 C 798.57 1078.77 799.65 1078.02 800.75 1077.28 C 801.53 1078.34 802.33 1079.41 803.14 1080.50 C 804.36 1080.37 805.59 1080.25 806.83 1080.15 C 805.83 1080.87 804.83 1081.59 803.89 1082.40 C 803.79 1082.74 803.61 1083.43 803.51 1083.77 L 803.45 1084.01 C 781.93 1093.01 759.66 1100.18 737.07 1105.96 C 733.79 1107.33 730.20 1105.33 728.64 1102.39 C 727.67 1097.68 727.75 1090.94 733.14 1089.04 Z" />
</g>
<g id="#5ca8feff">
<path fill="#5ca8fe" opacity="1.00" d=" M 624.61 1088.60 C 628.53 1084.59 631.65 1079.00 637.30 1077.32 C 640.84 1080.86 644.26 1084.52 647.84 1088.03 C 641.85 1088.77 635.88 1091.29 631.54 1095.55 C 629.19 1093.27 626.92 1090.91 624.61 1088.60 Z" />
</g>
<g id="#5c9ffcff">
<path fill="#5c9ffc" opacity="1.00" d=" M 683.72 1092.81 C 683.82 1090.15 684.11 1087.51 684.59 1084.92 C 688.48 1086.12 692.51 1085.56 696.49 1085.39 C 697.49 1086.17 698.37 1087.11 699.29 1088.03 C 699.22 1093.07 699.28 1098.11 699.30 1103.17 C 698.49 1102.10 697.69 1101.06 696.90 1100.02 C 692.98 1101.06 688.89 1101.24 684.94 1100.24 C 682.41 1106.54 683.02 1113.45 682.68 1120.09 L 681.72 1120.08 C 681.73 1110.35 681.73 1100.62 681.75 1090.89 C 682.40 1091.51 683.06 1092.15 683.72 1092.81 Z" />
</g>
<g id="#6192fcff">
<path fill="#6192fc" opacity="1.00" d=" M 631.54 1095.55 C 635.88 1091.29 641.85 1088.77 647.84 1088.03 C 651.48 1091.74 655.37 1095.21 658.92 1099.02 C 661.30 1101.64 661.77 1105.69 659.79 1108.69 C 658.10 1110.97 655.92 1112.83 653.92 1114.84 C 652.10 1114.67 649.81 1113.58 648.40 1115.32 C 645.74 1118.02 642.11 1119.98 638.22 1119.71 C 635.08 1119.24 631.65 1117.67 630.89 1114.29 C 630.80 1114.08 630.63 1113.67 630.55 1113.46 C 608.38 1113.30 586.22 1113.43 564.06 1113.38 C 558.46 1113.40 554.23 1107.32 555.88 1102.04 C 556.88 1098.02 560.91 1095.23 565.02 1095.56 C 587.19 1095.59 609.37 1095.54 631.54 1095.55 Z" />
</g>
<g id="#6a92fdff">
<path fill="#6a92fd" opacity="1.00" d=" M 684.94 1100.24 C 688.89 1101.24 692.98 1101.06 696.90 1100.02 C 697.69 1101.06 698.49 1102.10 699.30 1103.17 C 699.26 1111.52 699.28 1119.87 699.25 1128.23 C 698.27 1126.88 697.75 1124.40 695.65 1124.70 C 691.89 1124.66 688.14 1124.36 684.52 1123.32 C 684.15 1124.93 683.79 1126.56 683.40 1128.19 C 682.78 1125.53 682.55 1122.80 682.68 1120.09 C 683.02 1113.45 682.41 1106.54 684.94 1100.24 Z" />
</g>
<g id="#7187fcff">
<path fill="#7187fc" opacity="1.00" d=" M 648.40 1115.32 C 649.81 1113.58 652.10 1114.67 653.92 1114.84 C 649.01 1120.03 643.84 1124.98 638.81 1130.06 C 637.75 1128.82 637.06 1127.14 635.58 1126.38 C 633.85 1125.95 632.07 1126.31 630.34 1126.32 C 626.59 1126.53 622.86 1125.28 619.14 1126.11 C 622.94 1122.06 626.89 1118.14 630.89 1114.29 C 631.65 1117.67 635.08 1119.24 638.22 1119.71 C 642.11 1119.98 645.74 1118.02 648.40 1115.32 Z" />
</g>
<g id="#787bfcff">
<path fill="#787bfc" opacity="1.00" d=" M 681.72 1120.08 L 682.68 1120.09 C 682.55 1122.80 682.78 1125.53 683.40 1128.19 C 683.79 1126.56 684.15 1124.93 684.52 1123.32 C 688.14 1124.36 691.89 1124.66 695.65 1124.70 C 697.75 1124.40 698.27 1126.88 699.25 1128.23 C 699.35 1134.80 699.19 1141.38 699.26 1147.96 C 699.34 1152.23 698.29 1156.45 696.35 1160.25 C 695.34 1159.04 694.40 1157.78 693.24 1156.74 C 691.39 1155.97 689.35 1155.90 687.41 1155.57 C 685.62 1153.51 683.70 1150.82 680.64 1152.16 C 682.15 1148.96 681.60 1145.39 681.69 1142.00 C 681.74 1134.69 681.75 1127.39 681.72 1120.08 Z" />
</g>
<g id="#7178fcff">
<path fill="#7178fc" opacity="1.00" d=" M 619.14 1126.11 C 622.86 1125.28 626.59 1126.53 630.34 1126.32 C 632.07 1126.31 633.85 1125.95 635.58 1126.38 C 637.06 1127.14 637.75 1128.82 638.81 1130.06 C 635.12 1133.62 631.76 1137.54 627.82 1140.83 C 623.33 1144.27 616.30 1141.20 615.14 1135.85 C 613.92 1132.13 616.00 1128.13 619.14 1126.11 Z" />
</g>
<g id="#8768fcff">
<path fill="#8768fc" opacity="1.00" d=" M 680.64 1152.16 C 683.70 1150.82 685.62 1153.51 687.41 1155.57 C 689.35 1155.90 691.39 1155.97 693.24 1156.74 C 694.40 1157.78 695.34 1159.04 696.35 1160.25 C 691.93 1168.33 683.40 1174.17 674.03 1174.17 C 645.65 1174.24 617.26 1174.25 588.89 1174.18 C 582.19 1174.00 577.91 1165.35 582.05 1160.02 C 583.84 1157.53 586.88 1156.12 589.94 1156.39 C 617.63 1156.43 645.33 1156.36 673.02 1156.42 C 676.11 1156.38 678.75 1154.46 680.64 1152.16 Z" />
</g>
</svg>
